<?xml version="1.0" encoding="utf-8" standalone="no"?>
<!DOCTYPE svg PUBLIC "-//W3C//DTD SVG 1.1//EN"
  "http://www.w3.org/Graphics/SVG/1.1/DTD/svg11.dtd">
<svg xmlns:xlink="http://www.w3.org/1999/xlink" width="360pt" height="288pt" viewBox="0 0 360 288" xmlns="http://www.w3.org/2000/svg" version="1.1">
 <metadata>
  <rdf:RDF xmlns:dc="http://purl.org/dc/elements/1.1/" xmlns:cc="http://creativecommons.org/ns#" xmlns:rdf="http://www.w3.org/1999/02/22-rdf-syntax-ns#">
   <cc:Work>
    <dc:type rdf:resource="http://purl.org/dc/dcmitype/StillImage"/>
    <dc:date>2025-02-28T10:59:27.481529</dc:date>
    <dc:format>image/svg+xml</dc:format>
    <dc:creator>
     <cc:Agent>
      <dc:title>Matplotlib v3.10.0, https://matplotlib.org/</dc:title>
     </cc:Agent>
    </dc:creator>
   </cc:Work>
  </rdf:RDF>
 </metadata>
 <defs>
  <style type="text/css">*{stroke-linejoin: round; stroke-linecap: butt}</style>
 </defs>
 <g id="figure_1">
  <g id="patch_1">
   <path d="M 0 288 
L 360 288 
L 360 0 
L 0 0 
z
" style="fill: #ffffff"/>
  </g>
  <g id="axes_1">
   <g id="patch_2">
    <path d="M 72.058562 234.157183 
L 342.571369 234.157183 
L 342.571369 16.2 
L 72.058562 16.2 
z
" style="fill: #ffffff"/>
   </g>
   <g id="matplotlib.axis_1">
    <g id="xtick_1">
     <g id="line2d_1">
      <path d="M 84.354598 234.157183 
L 84.354598 16.2 
" clip-path="url(#p9ab9d24c7c)" style="fill: none; stroke-dasharray: 2.96,1.28; stroke-dashoffset: 0; stroke: #b0b0b0; stroke-opacity: 0.7; stroke-width: 0.8"/>
     </g>
     <g id="line2d_2">
      <defs>
       <path id="mc969f76b84" d="M 0 0 
L 0 3.5 
" style="stroke: #000000; stroke-width: 0.8"/>
      </defs>
      <g>
       <use xlink:href="#mc969f76b84" x="84.354598" y="234.157183" style="stroke: #000000; stroke-width: 0.8"/>
      </g>
     </g>
     <g id="text_1">
      <!-- 0.0 -->
      <g transform="translate(74.419121 250.65143) scale(0.12495 -0.12495)">
       <defs>
        <path id="DejaVuSans-30" d="M 2034 4250 
Q 1547 4250 1301 3770 
Q 1056 3291 1056 2328 
Q 1056 1369 1301 889 
Q 1547 409 2034 409 
Q 2525 409 2770 889 
Q 3016 1369 3016 2328 
Q 3016 3291 2770 3770 
Q 2525 4250 2034 4250 
z
M 2034 4750 
Q 2819 4750 3233 4129 
Q 3647 3509 3647 2328 
Q 3647 1150 3233 529 
Q 2819 -91 2034 -91 
Q 1250 -91 836 529 
Q 422 1150 422 2328 
Q 422 3509 836 4129 
Q 1250 4750 2034 4750 
z
" transform="scale(0.015625)"/>
        <path id="DejaVuSans-2e" d="M 684 794 
L 1344 794 
L 1344 0 
L 684 0 
L 684 794 
z
" transform="scale(0.015625)"/>
       </defs>
       <use xlink:href="#DejaVuSans-30"/>
       <use xlink:href="#DejaVuSans-2e" transform="translate(63.623047 0)"/>
       <use xlink:href="#DejaVuSans-30" transform="translate(95.410156 0)"/>
      </g>
     </g>
    </g>
    <g id="xtick_2">
     <g id="line2d_3">
      <path d="M 125.341387 234.157183 
L 125.341387 16.2 
" clip-path="url(#p9ab9d24c7c)" style="fill: none; stroke-dasharray: 2.96,1.28; stroke-dashoffset: 0; stroke: #b0b0b0; stroke-opacity: 0.7; stroke-width: 0.8"/>
     </g>
     <g id="line2d_4">
      <g>
       <use xlink:href="#mc969f76b84" x="125.341387" y="234.157183" style="stroke: #000000; stroke-width: 0.8"/>
      </g>
     </g>
     <g id="text_2">
      <!-- 2.5 -->
      <g transform="translate(115.40591 250.65143) scale(0.12495 -0.12495)">
       <defs>
        <path id="DejaVuSans-32" d="M 1228 531 
L 3431 531 
L 3431 0 
L 469 0 
L 469 531 
Q 828 903 1448 1529 
Q 2069 2156 2228 2338 
Q 2531 2678 2651 2914 
Q 2772 3150 2772 3378 
Q 2772 3750 2511 3984 
Q 2250 4219 1831 4219 
Q 1534 4219 1204 4116 
Q 875 4013 500 3803 
L 500 4441 
Q 881 4594 1212 4672 
Q 1544 4750 1819 4750 
Q 2544 4750 2975 4387 
Q 3406 4025 3406 3419 
Q 3406 3131 3298 2873 
Q 3191 2616 2906 2266 
Q 2828 2175 2409 1742 
Q 1991 1309 1228 531 
z
" transform="scale(0.015625)"/>
        <path id="DejaVuSans-35" d="M 691 4666 
L 3169 4666 
L 3169 4134 
L 1269 4134 
L 1269 2991 
Q 1406 3038 1543 3061 
Q 1681 3084 1819 3084 
Q 2600 3084 3056 2656 
Q 3513 2228 3513 1497 
Q 3513 744 3044 326 
Q 2575 -91 1722 -91 
Q 1428 -91 1123 -41 
Q 819 9 494 109 
L 494 744 
Q 775 591 1075 516 
Q 1375 441 1709 441 
Q 2250 441 2565 725 
Q 2881 1009 2881 1497 
Q 2881 1984 2565 2268 
Q 2250 2553 1709 2553 
Q 1456 2553 1204 2497 
Q 953 2441 691 2322 
L 691 4666 
z
" transform="scale(0.015625)"/>
       </defs>
       <use xlink:href="#DejaVuSans-32"/>
       <use xlink:href="#DejaVuSans-2e" transform="translate(63.623047 0)"/>
       <use xlink:href="#DejaVuSans-35" transform="translate(95.410156 0)"/>
      </g>
     </g>
    </g>
    <g id="xtick_3">
     <g id="line2d_5">
      <path d="M 166.328176 234.157183 
L 166.328176 16.2 
" clip-path="url(#p9ab9d24c7c)" style="fill: none; stroke-dasharray: 2.96,1.28; stroke-dashoffset: 0; stroke: #b0b0b0; stroke-opacity: 0.7; stroke-width: 0.8"/>
     </g>
     <g id="line2d_6">
      <g>
       <use xlink:href="#mc969f76b84" x="166.328176" y="234.157183" style="stroke: #000000; stroke-width: 0.8"/>
      </g>
     </g>
     <g id="text_3">
      <!-- 5.0 -->
      <g transform="translate(156.392699 250.65143) scale(0.12495 -0.12495)">
       <use xlink:href="#DejaVuSans-35"/>
       <use xlink:href="#DejaVuSans-2e" transform="translate(63.623047 0)"/>
       <use xlink:href="#DejaVuSans-30" transform="translate(95.410156 0)"/>
      </g>
     </g>
    </g>
    <g id="xtick_4">
     <g id="line2d_7">
      <path d="M 207.314965 234.157183 
L 207.314965 16.2 
" clip-path="url(#p9ab9d24c7c)" style="fill: none; stroke-dasharray: 2.96,1.28; stroke-dashoffset: 0; stroke: #b0b0b0; stroke-opacity: 0.7; stroke-width: 0.8"/>
     </g>
     <g id="line2d_8">
      <g>
       <use xlink:href="#mc969f76b84" x="207.314965" y="234.157183" style="stroke: #000000; stroke-width: 0.8"/>
      </g>
     </g>
     <g id="text_4">
      <!-- 7.5 -->
      <g transform="translate(197.379488 250.65143) scale(0.12495 -0.12495)">
       <defs>
        <path id="DejaVuSans-37" d="M 525 4666 
L 3525 4666 
L 3525 4397 
L 1831 0 
L 1172 0 
L 2766 4134 
L 525 4134 
L 525 4666 
z
" transform="scale(0.015625)"/>
       </defs>
       <use xlink:href="#DejaVuSans-37"/>
       <use xlink:href="#DejaVuSans-2e" transform="translate(63.623047 0)"/>
       <use xlink:href="#DejaVuSans-35" transform="translate(95.410156 0)"/>
      </g>
     </g>
    </g>
    <g id="xtick_5">
     <g id="line2d_9">
      <path d="M 248.301754 234.157183 
L 248.301754 16.2 
" clip-path="url(#p9ab9d24c7c)" style="fill: none; stroke-dasharray: 2.96,1.28; stroke-dashoffset: 0; stroke: #b0b0b0; stroke-opacity: 0.7; stroke-width: 0.8"/>
     </g>
     <g id="line2d_10">
      <g>
       <use xlink:href="#mc969f76b84" x="248.301754" y="234.157183" style="stroke: #000000; stroke-width: 0.8"/>
      </g>
     </g>
     <g id="text_5">
      <!-- 10.0 -->
      <g transform="translate(234.391305 250.65143) scale(0.12495 -0.12495)">
       <defs>
        <path id="DejaVuSans-31" d="M 794 531 
L 1825 531 
L 1825 4091 
L 703 3866 
L 703 4441 
L 1819 4666 
L 2450 4666 
L 2450 531 
L 3481 531 
L 3481 0 
L 794 0 
L 794 531 
z
" transform="scale(0.015625)"/>
       </defs>
       <use xlink:href="#DejaVuSans-31"/>
       <use xlink:href="#DejaVuSans-30" transform="translate(63.623047 0)"/>
       <use xlink:href="#DejaVuSans-2e" transform="translate(127.246094 0)"/>
       <use xlink:href="#DejaVuSans-30" transform="translate(159.033203 0)"/>
      </g>
     </g>
    </g>
    <g id="xtick_6">
     <g id="line2d_11">
      <path d="M 289.288543 234.157183 
L 289.288543 16.2 
" clip-path="url(#p9ab9d24c7c)" style="fill: none; stroke-dasharray: 2.96,1.28; stroke-dashoffset: 0; stroke: #b0b0b0; stroke-opacity: 0.7; stroke-width: 0.8"/>
     </g>
     <g id="line2d_12">
      <g>
       <use xlink:href="#mc969f76b84" x="289.288543" y="234.157183" style="stroke: #000000; stroke-width: 0.8"/>
      </g>
     </g>
     <g id="text_6">
      <!-- 12.5 -->
      <g transform="translate(275.378094 250.65143) scale(0.12495 -0.12495)">
       <use xlink:href="#DejaVuSans-31"/>
       <use xlink:href="#DejaVuSans-32" transform="translate(63.623047 0)"/>
       <use xlink:href="#DejaVuSans-2e" transform="translate(127.246094 0)"/>
       <use xlink:href="#DejaVuSans-35" transform="translate(159.033203 0)"/>
      </g>
     </g>
    </g>
    <g id="xtick_7">
     <g id="line2d_13">
      <path d="M 330.275332 234.157183 
L 330.275332 16.2 
" clip-path="url(#p9ab9d24c7c)" style="fill: none; stroke-dasharray: 2.96,1.28; stroke-dashoffset: 0; stroke: #b0b0b0; stroke-opacity: 0.7; stroke-width: 0.8"/>
     </g>
     <g id="line2d_14">
      <g>
       <use xlink:href="#mc969f76b84" x="330.275332" y="234.157183" style="stroke: #000000; stroke-width: 0.8"/>
      </g>
     </g>
     <g id="text_7">
      <!-- 15.0 -->
      <g transform="translate(316.364883 250.65143) scale(0.12495 -0.12495)">
       <use xlink:href="#DejaVuSans-31"/>
       <use xlink:href="#DejaVuSans-35" transform="translate(63.623047 0)"/>
       <use xlink:href="#DejaVuSans-2e" transform="translate(127.246094 0)"/>
       <use xlink:href="#DejaVuSans-30" transform="translate(159.033203 0)"/>
      </g>
     </g>
    </g>
    <g id="text_8">
     <!-- Free precession time $\tau$ [$\mu$s] -->
     <g transform="translate(104.714965 268.65) scale(0.15 -0.15)">
      <defs>
       <path id="DejaVuSans-46" d="M 628 4666 
L 3309 4666 
L 3309 4134 
L 1259 4134 
L 1259 2759 
L 3109 2759 
L 3109 2228 
L 1259 2228 
L 1259 0 
L 628 0 
L 628 4666 
z
" transform="scale(0.015625)"/>
       <path id="DejaVuSans-72" d="M 2631 2963 
Q 2534 3019 2420 3045 
Q 2306 3072 2169 3072 
Q 1681 3072 1420 2755 
Q 1159 2438 1159 1844 
L 1159 0 
L 581 0 
L 581 3500 
L 1159 3500 
L 1159 2956 
Q 1341 3275 1631 3429 
Q 1922 3584 2338 3584 
Q 2397 3584 2469 3576 
Q 2541 3569 2628 3553 
L 2631 2963 
z
" transform="scale(0.015625)"/>
       <path id="DejaVuSans-65" d="M 3597 1894 
L 3597 1613 
L 953 1613 
Q 991 1019 1311 708 
Q 1631 397 2203 397 
Q 2534 397 2845 478 
Q 3156 559 3463 722 
L 3463 178 
Q 3153 47 2828 -22 
Q 2503 -91 2169 -91 
Q 1331 -91 842 396 
Q 353 884 353 1716 
Q 353 2575 817 3079 
Q 1281 3584 2069 3584 
Q 2775 3584 3186 3129 
Q 3597 2675 3597 1894 
z
M 3022 2063 
Q 3016 2534 2758 2815 
Q 2500 3097 2075 3097 
Q 1594 3097 1305 2825 
Q 1016 2553 972 2059 
L 3022 2063 
z
" transform="scale(0.015625)"/>
       <path id="DejaVuSans-20" transform="scale(0.015625)"/>
       <path id="DejaVuSans-70" d="M 1159 525 
L 1159 -1331 
L 581 -1331 
L 581 3500 
L 1159 3500 
L 1159 2969 
Q 1341 3281 1617 3432 
Q 1894 3584 2278 3584 
Q 2916 3584 3314 3078 
Q 3713 2572 3713 1747 
Q 3713 922 3314 415 
Q 2916 -91 2278 -91 
Q 1894 -91 1617 61 
Q 1341 213 1159 525 
z
M 3116 1747 
Q 3116 2381 2855 2742 
Q 2594 3103 2138 3103 
Q 1681 3103 1420 2742 
Q 1159 2381 1159 1747 
Q 1159 1113 1420 752 
Q 1681 391 2138 391 
Q 2594 391 2855 752 
Q 3116 1113 3116 1747 
z
" transform="scale(0.015625)"/>
       <path id="DejaVuSans-63" d="M 3122 3366 
L 3122 2828 
Q 2878 2963 2633 3030 
Q 2388 3097 2138 3097 
Q 1578 3097 1268 2742 
Q 959 2388 959 1747 
Q 959 1106 1268 751 
Q 1578 397 2138 397 
Q 2388 397 2633 464 
Q 2878 531 3122 666 
L 3122 134 
Q 2881 22 2623 -34 
Q 2366 -91 2075 -91 
Q 1284 -91 818 406 
Q 353 903 353 1747 
Q 353 2603 823 3093 
Q 1294 3584 2113 3584 
Q 2378 3584 2631 3529 
Q 2884 3475 3122 3366 
z
" transform="scale(0.015625)"/>
       <path id="DejaVuSans-73" d="M 2834 3397 
L 2834 2853 
Q 2591 2978 2328 3040 
Q 2066 3103 1784 3103 
Q 1356 3103 1142 2972 
Q 928 2841 928 2578 
Q 928 2378 1081 2264 
Q 1234 2150 1697 2047 
L 1894 2003 
Q 2506 1872 2764 1633 
Q 3022 1394 3022 966 
Q 3022 478 2636 193 
Q 2250 -91 1575 -91 
Q 1294 -91 989 -36 
Q 684 19 347 128 
L 347 722 
Q 666 556 975 473 
Q 1284 391 1588 391 
Q 1994 391 2212 530 
Q 2431 669 2431 922 
Q 2431 1156 2273 1281 
Q 2116 1406 1581 1522 
L 1381 1569 
Q 847 1681 609 1914 
Q 372 2147 372 2553 
Q 372 3047 722 3315 
Q 1072 3584 1716 3584 
Q 2034 3584 2315 3537 
Q 2597 3491 2834 3397 
z
" transform="scale(0.015625)"/>
       <path id="DejaVuSans-69" d="M 603 3500 
L 1178 3500 
L 1178 0 
L 603 0 
L 603 3500 
z
M 603 4863 
L 1178 4863 
L 1178 4134 
L 603 4134 
L 603 4863 
z
" transform="scale(0.015625)"/>
       <path id="DejaVuSans-6f" d="M 1959 3097 
Q 1497 3097 1228 2736 
Q 959 2375 959 1747 
Q 959 1119 1226 758 
Q 1494 397 1959 397 
Q 2419 397 2687 759 
Q 2956 1122 2956 1747 
Q 2956 2369 2687 2733 
Q 2419 3097 1959 3097 
z
M 1959 3584 
Q 2709 3584 3137 3096 
Q 3566 2609 3566 1747 
Q 3566 888 3137 398 
Q 2709 -91 1959 -91 
Q 1206 -91 779 398 
Q 353 888 353 1747 
Q 353 2609 779 3096 
Q 1206 3584 1959 3584 
z
" transform="scale(0.015625)"/>
       <path id="DejaVuSans-6e" d="M 3513 2113 
L 3513 0 
L 2938 0 
L 2938 2094 
Q 2938 2591 2744 2837 
Q 2550 3084 2163 3084 
Q 1697 3084 1428 2787 
Q 1159 2491 1159 1978 
L 1159 0 
L 581 0 
L 581 3500 
L 1159 3500 
L 1159 2956 
Q 1366 3272 1645 3428 
Q 1925 3584 2291 3584 
Q 2894 3584 3203 3211 
Q 3513 2838 3513 2113 
z
" transform="scale(0.015625)"/>
       <path id="DejaVuSans-74" d="M 1172 4494 
L 1172 3500 
L 2356 3500 
L 2356 3053 
L 1172 3053 
L 1172 1153 
Q 1172 725 1289 603 
Q 1406 481 1766 481 
L 2356 481 
L 2356 0 
L 1766 0 
Q 1100 0 847 248 
Q 594 497 594 1153 
L 594 3053 
L 172 3053 
L 172 3500 
L 594 3500 
L 594 4494 
L 1172 4494 
z
" transform="scale(0.015625)"/>
       <path id="DejaVuSans-6d" d="M 3328 2828 
Q 3544 3216 3844 3400 
Q 4144 3584 4550 3584 
Q 5097 3584 5394 3201 
Q 5691 2819 5691 2113 
L 5691 0 
L 5113 0 
L 5113 2094 
Q 5113 2597 4934 2840 
Q 4756 3084 4391 3084 
Q 3944 3084 3684 2787 
Q 3425 2491 3425 1978 
L 3425 0 
L 2847 0 
L 2847 2094 
Q 2847 2600 2669 2842 
Q 2491 3084 2119 3084 
Q 1678 3084 1418 2786 
Q 1159 2488 1159 1978 
L 1159 0 
L 581 0 
L 581 3500 
L 1159 3500 
L 1159 2956 
Q 1356 3278 1631 3431 
Q 1906 3584 2284 3584 
Q 2666 3584 2933 3390 
Q 3200 3197 3328 2828 
z
" transform="scale(0.015625)"/>
       <path id="DejaVuSans-Oblique-3c4" d="M 2103 638 
Q 2188 488 2525 488 
L 2800 488 
L 2706 0 
L 2363 0 
Q 1800 0 1600 300 
Q 1403 606 1534 1269 
L 1856 2925 
L 541 2925 
L 653 3500 
L 3881 3500 
L 3769 2925 
L 2444 2925 
L 2113 1234 
Q 2025 781 2103 638 
z
" transform="scale(0.015625)"/>
       <path id="DejaVuSans-5b" d="M 550 4863 
L 1875 4863 
L 1875 4416 
L 1125 4416 
L 1125 -397 
L 1875 -397 
L 1875 -844 
L 550 -844 
L 550 4863 
z
" transform="scale(0.015625)"/>
       <path id="DejaVuSans-Oblique-3bc" d="M -84 -1331 
L 856 3500 
L 1434 3500 
L 1009 1322 
Q 997 1256 987 1175 
Q 978 1094 978 1013 
Q 978 722 1161 565 
Q 1344 409 1684 409 
Q 2147 409 2431 671 
Q 2716 934 2816 1459 
L 3213 3500 
L 3788 3500 
L 3266 809 
Q 3253 750 3248 706 
Q 3244 663 3244 628 
Q 3244 531 3283 486 
Q 3322 441 3406 441 
Q 3438 441 3492 456 
Q 3547 472 3647 513 
L 3559 50 
Q 3422 -19 3297 -55 
Q 3172 -91 3053 -91 
Q 2847 -91 2730 40 
Q 2613 172 2613 403 
Q 2438 153 2195 31 
Q 1953 -91 1625 -91 
Q 1334 -91 1117 43 
Q 900 178 831 397 
L 494 -1331 
L -84 -1331 
z
" transform="scale(0.015625)"/>
       <path id="DejaVuSans-5d" d="M 1947 4863 
L 1947 -844 
L 622 -844 
L 622 -397 
L 1369 -397 
L 1369 4416 
L 622 4416 
L 622 4863 
L 1947 4863 
z
" transform="scale(0.015625)"/>
      </defs>
      <use xlink:href="#DejaVuSans-46" transform="translate(0 0.015625)"/>
      <use xlink:href="#DejaVuSans-72" transform="translate(57.519531 0.015625)"/>
      <use xlink:href="#DejaVuSans-65" transform="translate(98.632812 0.015625)"/>
      <use xlink:href="#DejaVuSans-65" transform="translate(160.15625 0.015625)"/>
      <use xlink:href="#DejaVuSans-20" transform="translate(221.679688 0.015625)"/>
      <use xlink:href="#DejaVuSans-70" transform="translate(253.466797 0.015625)"/>
      <use xlink:href="#DejaVuSans-72" transform="translate(316.943359 0.015625)"/>
      <use xlink:href="#DejaVuSans-65" transform="translate(358.056641 0.015625)"/>
      <use xlink:href="#DejaVuSans-63" transform="translate(419.580078 0.015625)"/>
      <use xlink:href="#DejaVuSans-65" transform="translate(474.560547 0.015625)"/>
      <use xlink:href="#DejaVuSans-73" transform="translate(536.083984 0.015625)"/>
      <use xlink:href="#DejaVuSans-73" transform="translate(588.183594 0.015625)"/>
      <use xlink:href="#DejaVuSans-69" transform="translate(640.283203 0.015625)"/>
      <use xlink:href="#DejaVuSans-6f" transform="translate(668.066406 0.015625)"/>
      <use xlink:href="#DejaVuSans-6e" transform="translate(729.248047 0.015625)"/>
      <use xlink:href="#DejaVuSans-20" transform="translate(792.626953 0.015625)"/>
      <use xlink:href="#DejaVuSans-74" transform="translate(824.414062 0.015625)"/>
      <use xlink:href="#DejaVuSans-69" transform="translate(863.623047 0.015625)"/>
      <use xlink:href="#DejaVuSans-6d" transform="translate(891.40625 0.015625)"/>
      <use xlink:href="#DejaVuSans-65" transform="translate(988.818359 0.015625)"/>
      <use xlink:href="#DejaVuSans-20" transform="translate(1050.341797 0.015625)"/>
      <use xlink:href="#DejaVuSans-Oblique-3c4" transform="translate(1082.128906 0.015625)"/>
      <use xlink:href="#DejaVuSans-20" transform="translate(1142.333984 0.015625)"/>
      <use xlink:href="#DejaVuSans-5b" transform="translate(1174.121094 0.015625)"/>
      <use xlink:href="#DejaVuSans-Oblique-3bc" transform="translate(1213.134766 0.015625)"/>
      <use xlink:href="#DejaVuSans-73" transform="translate(1276.757812 0.015625)"/>
      <use xlink:href="#DejaVuSans-5d" transform="translate(1328.857422 0.015625)"/>
     </g>
    </g>
   </g>
   <g id="matplotlib.axis_2">
    <g id="ytick_1">
     <g id="line2d_15">
      <path d="M 72.058562 224.250038 
L 342.571369 224.250038 
" clip-path="url(#p9ab9d24c7c)" style="fill: none; stroke-dasharray: 2.96,1.28; stroke-dashoffset: 0; stroke: #b0b0b0; stroke-opacity: 0.7; stroke-width: 0.8"/>
     </g>
     <g id="line2d_16">
      <defs>
       <path id="mc4eb0017ec" d="M 0 0 
L -3.5 0 
" style="stroke: #000000; stroke-width: 0.8"/>
      </defs>
      <g>
       <use xlink:href="#mc4eb0017ec" x="72.058562" y="224.250038" style="stroke: #000000; stroke-width: 0.8"/>
      </g>
     </g>
     <g id="text_9">
      <!-- −1.0 -->
      <g transform="translate(34.717188 228.997162) scale(0.12495 -0.12495)">
       <defs>
        <path id="DejaVuSans-2212" d="M 678 2272 
L 4684 2272 
L 4684 1741 
L 678 1741 
L 678 2272 
z
" transform="scale(0.015625)"/>
       </defs>
       <use xlink:href="#DejaVuSans-2212"/>
       <use xlink:href="#DejaVuSans-31" transform="translate(83.789062 0)"/>
       <use xlink:href="#DejaVuSans-2e" transform="translate(147.412109 0)"/>
       <use xlink:href="#DejaVuSans-30" transform="translate(179.199219 0)"/>
      </g>
     </g>
    </g>
    <g id="ytick_2">
     <g id="line2d_17">
      <path d="M 72.058562 174.714315 
L 342.571369 174.714315 
" clip-path="url(#p9ab9d24c7c)" style="fill: none; stroke-dasharray: 2.96,1.28; stroke-dashoffset: 0; stroke: #b0b0b0; stroke-opacity: 0.7; stroke-width: 0.8"/>
     </g>
     <g id="line2d_18">
      <g>
       <use xlink:href="#mc4eb0017ec" x="72.058562" y="174.714315" style="stroke: #000000; stroke-width: 0.8"/>
      </g>
     </g>
     <g id="text_10">
      <!-- −0.5 -->
      <g transform="translate(34.717188 179.461439) scale(0.12495 -0.12495)">
       <use xlink:href="#DejaVuSans-2212"/>
       <use xlink:href="#DejaVuSans-30" transform="translate(83.789062 0)"/>
       <use xlink:href="#DejaVuSans-2e" transform="translate(147.412109 0)"/>
       <use xlink:href="#DejaVuSans-35" transform="translate(179.199219 0)"/>
      </g>
     </g>
    </g>
    <g id="ytick_3">
     <g id="line2d_19">
      <path d="M 72.058562 125.178591 
L 342.571369 125.178591 
" clip-path="url(#p9ab9d24c7c)" style="fill: none; stroke-dasharray: 2.96,1.28; stroke-dashoffset: 0; stroke: #b0b0b0; stroke-opacity: 0.7; stroke-width: 0.8"/>
     </g>
     <g id="line2d_20">
      <g>
       <use xlink:href="#mc4eb0017ec" x="72.058562" y="125.178591" style="stroke: #000000; stroke-width: 0.8"/>
      </g>
     </g>
     <g id="text_11">
      <!-- 0.0 -->
      <g transform="translate(45.187607 129.925715) scale(0.12495 -0.12495)">
       <use xlink:href="#DejaVuSans-30"/>
       <use xlink:href="#DejaVuSans-2e" transform="translate(63.623047 0)"/>
       <use xlink:href="#DejaVuSans-30" transform="translate(95.410156 0)"/>
      </g>
     </g>
    </g>
    <g id="ytick_4">
     <g id="line2d_21">
      <path d="M 72.058562 75.642868 
L 342.571369 75.642868 
" clip-path="url(#p9ab9d24c7c)" style="fill: none; stroke-dasharray: 2.96,1.28; stroke-dashoffset: 0; stroke: #b0b0b0; stroke-opacity: 0.7; stroke-width: 0.8"/>
     </g>
     <g id="line2d_22">
      <g>
       <use xlink:href="#mc4eb0017ec" x="72.058562" y="75.642868" style="stroke: #000000; stroke-width: 0.8"/>
      </g>
     </g>
     <g id="text_12">
      <!-- 0.5 -->
      <g transform="translate(45.187607 80.389992) scale(0.12495 -0.12495)">
       <use xlink:href="#DejaVuSans-30"/>
       <use xlink:href="#DejaVuSans-2e" transform="translate(63.623047 0)"/>
       <use xlink:href="#DejaVuSans-35" transform="translate(95.410156 0)"/>
      </g>
     </g>
    </g>
    <g id="ytick_5">
     <g id="line2d_23">
      <path d="M 72.058562 26.107145 
L 342.571369 26.107145 
" clip-path="url(#p9ab9d24c7c)" style="fill: none; stroke-dasharray: 2.96,1.28; stroke-dashoffset: 0; stroke: #b0b0b0; stroke-opacity: 0.7; stroke-width: 0.8"/>
     </g>
     <g id="line2d_24">
      <g>
       <use xlink:href="#mc4eb0017ec" x="72.058562" y="26.107145" style="stroke: #000000; stroke-width: 0.8"/>
      </g>
     </g>
     <g id="text_13">
      <!-- 1.0 -->
      <g transform="translate(45.187607 30.854269) scale(0.12495 -0.12495)">
       <use xlink:href="#DejaVuSans-31"/>
       <use xlink:href="#DejaVuSans-2e" transform="translate(63.623047 0)"/>
       <use xlink:href="#DejaVuSans-30" transform="translate(95.410156 0)"/>
      </g>
     </g>
    </g>
    <g id="text_14">
     <!-- $\langle S_z\rangle$ -->
     <g transform="translate(27.597656 138.753591) rotate(-90) scale(0.15 -0.15)">
      <defs>
       <path id="DejaVuSans-27e8" d="M 572 2006 
L 1453 4856 
L 1984 4856 
L 1103 2006 
L 1984 -844 
L 1453 -844 
L 572 2006 
z
" transform="scale(0.015625)"/>
       <path id="DejaVuSans-Oblique-53" d="M 3859 4513 
L 3738 3897 
Q 3422 4066 3111 4152 
Q 2800 4238 2509 4238 
Q 1944 4238 1609 3991 
Q 1275 3744 1275 3334 
Q 1275 3109 1398 2989 
Q 1522 2869 2034 2731 
L 2413 2638 
Q 3053 2472 3303 2217 
Q 3553 1963 3553 1503 
Q 3553 797 2998 353 
Q 2444 -91 1538 -91 
Q 1166 -91 791 -17 
Q 416 56 38 206 
L 166 856 
Q 513 641 861 531 
Q 1209 422 1556 422 
Q 2147 422 2503 684 
Q 2859 947 2859 1369 
Q 2859 1650 2717 1795 
Q 2575 1941 2106 2059 
L 1728 2156 
Q 1081 2325 845 2545 
Q 609 2766 609 3163 
Q 609 3859 1145 4304 
Q 1681 4750 2541 4750 
Q 2875 4750 3203 4690 
Q 3531 4631 3859 4513 
z
" transform="scale(0.015625)"/>
       <path id="DejaVuSans-Oblique-7a" d="M 744 3500 
L 3475 3500 
L 3372 2975 
L 738 459 
L 2913 459 
L 2822 0 
L -19 0 
L 84 525 
L 2719 3041 
L 653 3041 
L 744 3500 
z
" transform="scale(0.015625)"/>
       <path id="DejaVuSans-27e9" d="M 1925 2006 
L 1044 -844 
L 513 -844 
L 1394 2006 
L 513 4856 
L 1044 4856 
L 1925 2006 
z
" transform="scale(0.015625)"/>
      </defs>
      <use xlink:href="#DejaVuSans-27e8" transform="translate(0 0.125)"/>
      <use xlink:href="#DejaVuSans-Oblique-53" transform="translate(39.013672 0.125)"/>
      <use xlink:href="#DejaVuSans-Oblique-7a" transform="translate(102.490234 -16.28125) scale(0.7)"/>
      <use xlink:href="#DejaVuSans-27e9" transform="translate(141.967773 0.125)"/>
     </g>
    </g>
   </g>
   <g id="line2d_25">
    <path d="M 84.354598 125.178591 
L 85.174881 48.75144 
L 85.502994 31.697298 
L 85.667051 27.404188 
L 85.831107 26.140758 
L 85.995164 27.945881 
L 86.323277 40.443342 
L 86.815446 77.878705 
L 88.291955 212.790146 
L 88.620068 223.228711 
L 88.784125 223.947885 
L 88.948181 221.607037 
L 89.276294 208.131696 
L 89.768464 169.686016 
L 91.080916 45.397768 
L 91.409029 30.335049 
L 91.573086 27.120216 
L 91.737142 26.944441 
L 91.901199 29.811689 
L 92.229312 44.222308 
L 92.721481 83.566381 
L 94.033934 206.296468 
L 94.362047 220.310568 
L 94.526103 222.978213 
L 94.69016 222.614846 
L 94.854216 219.233801 
L 95.182329 203.936269 
L 95.674499 163.811094 
L 96.986951 42.961003 
L 97.315064 30.022011 
L 97.479121 27.902356 
L 97.643177 28.79726 
L 97.807234 32.676334 
L 98.135347 48.807041 
L 98.627516 89.59155 
L 99.775912 198.343983 
L 100.104025 215.57834 
L 100.432138 221.671083 
L 100.596195 220.255515 
L 100.924308 208.734361 
L 101.416477 173.057482 
L 102.892986 41.495375 
L 103.221099 30.758895 
L 103.385156 29.724075 
L 103.549212 31.646289 
L 103.877325 44.018927 
L 104.369495 80.381078 
L 105.846003 209.221452 
L 106.174116 218.84423 
L 106.338173 219.348808 
L 106.50223 216.936973 
L 106.830343 203.767911 
L 107.322512 166.840979 
L 108.634964 49.294485 
L 108.963077 35.376238 
L 109.127134 32.516072 
L 109.291191 32.529392 
L 109.455247 35.410997 
L 109.78336 49.317044 
L 110.27553 86.685836 
L 111.587982 201.491809 
L 111.916095 214.278752 
L 112.080151 216.597138 
L 112.244208 216.081251 
L 112.408265 212.75236 
L 112.736378 198.17262 
L 113.228547 160.486348 
L 114.540999 48.676496 
L 114.869112 37.022435 
L 115.033169 35.235016 
L 115.197225 36.23532 
L 115.361282 39.986608 
L 115.689395 55.173457 
L 116.181565 93.05234 
L 117.32996 192.689824 
L 117.658073 208.186127 
L 117.82213 212.157348 
L 117.986186 213.427594 
L 118.150243 211.963635 
L 118.478356 201.122198 
L 118.970526 168.230112 
L 120.447034 49.010663 
L 120.775147 39.600619 
L 120.939204 38.830949 
L 121.10326 40.735411 
L 121.431373 52.223828 
L 121.923543 85.368405 
L 123.235995 193.053341 
L 123.564108 206.24962 
L 123.728165 209.143885 
L 123.892221 209.432177 
L 124.056278 207.112513 
L 124.384391 195.04256 
L 124.876561 161.764115 
L 126.189013 57.459964 
L 126.517126 45.402305 
L 126.681182 43.02503 
L 126.845239 43.19654 
L 127.009295 45.904218 
L 127.337408 58.488179 
L 127.829578 91.783334 
L 129.14203 192.522318 
L 129.470143 203.457293 
L 129.6342 205.335422 
L 129.798256 204.727821 
L 129.962313 201.660932 
L 130.290426 188.631968 
L 130.782596 155.434897 
L 131.930991 66.566406 
L 132.259104 52.368535 
L 132.587217 47.188377 
L 132.751274 48.206481 
L 133.079387 57.263355 
L 133.571556 85.697608 
L 135.048065 191.14521 
L 135.376178 199.905734 
L 135.540235 200.848317 
L 135.704291 199.446905 
L 136.032404 189.889031 
L 136.524574 161.462283 
L 138.001083 60.196008 
L 138.329196 52.476653 
L 138.493252 51.966485 
L 138.657309 53.722682 
L 138.985422 63.715354 
L 139.477591 92.028795 
L 140.790044 182.574572 
L 141.118157 193.415874 
L 141.282213 195.709706 
L 141.44627 195.813253 
L 141.610326 193.731832 
L 141.938439 183.370867 
L 142.430609 155.272614 
L 143.743061 68.566637 
L 144.071174 58.78918 
L 144.235231 56.947555 
L 144.399287 57.223517 
L 144.563344 59.599844 
L 144.891457 70.26287 
L 145.383626 98.048695 
L 146.696079 180.834006 
L 147.024192 189.583121 
L 147.188248 190.997148 
L 147.352305 190.369833 
L 147.516361 187.729381 
L 147.844474 176.829695 
L 148.336644 149.44824 
L 149.48504 77.164498 
L 149.813153 65.831988 
L 150.141266 61.867745 
L 150.305322 62.8175 
L 150.633435 70.390974 
L 151.125605 93.662648 
L 152.602114 178.451362 
L 152.930227 185.266182 
L 153.094283 185.903812 
L 153.25834 184.661007 
L 153.586453 176.779948 
L 154.078622 153.790251 
L 155.391075 78.764326 
L 155.719188 69.477624 
L 155.883244 67.390244 
L 156.047301 67.099623 
L 156.211357 68.605882 
L 156.53947 76.733562 
L 157.03164 99.359942 
L 158.344092 170.577578 
L 158.672205 178.902433 
L 158.836262 180.595973 
L 159.000318 180.567784 
L 159.164375 178.8276 
L 159.492488 170.512521 
L 159.984657 148.324702 
L 161.29711 80.921622 
L 161.625223 73.513757 
L 161.789279 72.187359 
L 161.953336 72.505945 
L 162.117392 74.450844 
L 162.445505 82.896292 
L 162.937675 104.576802 
L 164.08607 162.814844 
L 164.414184 172.186785 
L 164.742297 175.704789 
L 164.906353 175.12418 
L 165.07041 173.003211 
L 165.398523 164.481832 
L 165.890692 143.370564 
L 167.039088 88.414905 
L 167.367201 79.96425 
L 167.531258 77.814271 
L 167.695314 77.140401 
L 167.859371 77.954953 
L 168.187484 83.869366 
L 168.679653 101.669057 
L 170.156162 165.384491 
L 170.484275 170.332505 
L 170.648332 170.721181 
L 170.812388 169.700245 
L 171.140501 163.631692 
L 171.632671 146.258761 
L 172.945123 90.468937 
L 173.273236 83.720959 
L 173.437293 82.255062 
L 173.601349 82.124481 
L 173.765406 83.324982 
L 174.093519 89.498301 
L 174.585688 106.392322 
L 175.89814 158.732852 
L 176.226253 164.702599 
L 176.39031 165.866186 
L 176.554367 165.76528 
L 176.718423 164.411092 
L 177.046536 158.179307 
L 177.538706 141.809585 
L 178.851158 92.847756 
L 179.179271 87.606232 
L 179.343328 86.718736 
L 179.507384 87.025224 
L 179.671441 88.508337 
L 179.999554 94.75561 
L 180.491723 110.562456 
L 181.640119 152.431666 
L 181.968232 159.045497 
L 182.296345 161.431853 
L 182.460402 160.9448 
L 182.788515 156.722795 
L 183.280684 143.579064 
L 184.757193 95.446618 
L 185.085306 91.51058 
L 185.249362 91.098716 
L 185.413419 91.742377 
L 185.741532 96.055576 
L 186.233702 108.782265 
L 187.546154 150.503573 
L 187.874267 155.718869 
L 188.038323 156.918574 
L 188.20238 157.129374 
L 188.366436 156.351856 
L 188.69455 151.985735 
L 189.186719 139.707107 
L 190.499171 100.886056 
L 190.827284 96.29716 
L 190.991341 95.335506 
L 191.155397 95.302567 
L 191.319454 96.192523 
L 191.647567 100.576727 
L 192.139737 112.382473 
L 193.452189 148.408551 
L 193.780302 152.418981 
L 193.944358 153.166006 
L 194.108415 153.043137 
L 194.272471 152.060727 
L 194.600585 147.689757 
L 195.092754 136.375702 
L 196.24115 105.858256 
L 196.569263 100.907982 
L 196.897376 98.996547 
L 197.061432 99.254436 
L 197.225489 100.310828 
L 197.553602 104.640809 
L 198.045772 115.450144 
L 199.194167 143.708924 
L 199.52228 148.09409 
L 199.850393 149.613578 
L 200.01445 149.240095 
L 200.342563 146.313365 
L 200.834733 137.383479 
L 202.311241 105.209999 
L 202.639354 102.658698 
L 202.803411 102.425435 
L 202.967467 102.896519 
L 203.29558 105.850054 
L 203.78775 114.411293 
L 205.100202 142.074049 
L 205.428315 145.462509 
L 205.592372 146.21959 
L 205.756428 146.320952 
L 205.920485 145.768779 
L 206.248598 142.812548 
L 206.740767 134.62908 
L 208.05322 109.109651 
L 208.381333 106.155739 
L 208.545389 105.558221 
L 208.709446 105.571299 
L 208.873502 106.189557 
L 209.201615 109.12763 
L 209.693785 116.928883 
L 211.006237 140.426023 
L 211.33435 142.985523 
L 211.498407 143.441604 
L 211.662463 143.330144 
L 211.82652 142.659288 
L 212.154633 139.757064 
L 212.646802 132.33816 
L 213.795198 112.55201 
L 214.123311 109.389438 
L 214.451424 108.205713 
L 214.615481 108.400925 
L 214.943594 110.313851 
L 215.435763 116.380589 
L 216.912272 138.826502 
L 217.240385 140.709146 
L 217.404442 140.931484 
L 217.568498 140.665724 
L 217.896611 138.733649 
L 218.388781 132.933199 
L 219.86529 112.296562 
L 220.193403 110.700953 
L 220.357459 110.573609 
L 220.521516 110.898126 
L 220.849629 112.834137 
L 221.341798 118.369065 
L 222.654251 136.064208 
L 222.982364 138.19835 
L 223.14642 138.663578 
L 223.310477 138.708709 
L 223.474533 138.335855 
L 223.802646 136.408467 
L 224.294816 131.135189 
L 225.607268 114.846365 
L 225.935381 112.98947 
L 226.099438 112.624596 
L 226.263494 112.650219 
L 226.427551 113.062318 
L 226.755664 114.970992 
L 227.247833 119.989179 
L 228.560286 134.978489 
L 228.888399 136.587065 
L 229.052455 136.863782 
L 229.216512 136.777573 
L 229.380568 136.334062 
L 229.708681 134.451923 
L 230.200851 129.680006 
L 231.349247 117.036096 
L 231.67736 115.033218 
L 232.005473 114.300315 
L 232.169529 114.438179 
L 232.497642 115.688024 
L 232.989812 119.604341 
L 234.466321 133.989555 
L 234.794434 135.178767 
L 234.95849 135.310796 
L 235.122547 135.12904 
L 235.45066 133.865822 
L 235.942829 130.109125 
L 237.419338 116.819937 
L 237.747451 115.806483 
L 237.911508 115.733346 
L 238.075564 115.952326 
L 238.403677 117.222028 
L 238.895847 120.825716 
L 240.208299 132.301743 
L 240.536412 133.676533 
L 240.700469 133.971914 
L 240.864525 133.993657 
L 241.028582 133.743116 
L 241.356695 132.472168 
L 241.848864 129.013674 
L 243.161316 118.358036 
L 243.48943 117.150189 
L 243.653486 116.916618 
L 243.817543 116.939781 
L 243.981599 117.217136 
L 244.309712 118.485515 
L 244.801882 121.807464 
L 246.114334 131.71697 
L 246.442447 132.775489 
L 246.606504 132.954284 
L 246.77056 132.891777 
L 247.098673 132.064467 
L 247.426786 130.407325 
L 248.083012 125.529738 
L 248.903295 119.670665 
L 249.231408 118.331865 
L 249.559521 117.846923 
L 249.723578 117.944042 
L 250.051691 118.795269 
L 250.54386 121.451815 
L 252.020369 131.213855 
L 252.348482 132.018607 
L 252.512539 132.105325 
L 252.676595 131.977586 
L 253.004708 131.10623 
L 253.496878 128.521455 
L 254.973386 119.365633 
L 255.301499 118.66897 
L 255.465556 118.621153 
L 255.629613 118.776158 
L 255.957726 119.664712 
L 256.449895 122.182882 
L 257.762347 130.217363 
L 258.09046 131.180309 
L 258.254517 131.385971 
L 258.418573 131.398734 
L 258.58263 131.219275 
L 258.910743 130.315797 
L 259.402913 127.859255 
L 260.715365 120.273754 
L 261.043478 119.413561 
L 261.207534 119.248489 
L 261.371591 119.267502 
L 261.699704 119.845943 
L 262.027817 121.070617 
L 262.684043 124.774754 
L 263.504326 129.342744 
L 263.832439 130.424175 
L 264.160552 130.85306 
L 264.324608 130.805074 
L 264.652722 130.195937 
L 264.980835 128.978964 
L 265.637061 125.394611 
L 266.457343 121.081359 
L 266.785456 120.095737 
L 267.113569 119.74149 
L 267.277626 119.816029 
L 267.605739 120.453039 
L 268.097909 122.435905 
L 269.574417 129.731127 
L 269.90253 130.330735 
L 270.066587 130.393231 
L 270.230643 130.294264 
L 270.558756 129.631978 
L 271.050926 127.673152 
L 272.527435 120.733126 
L 272.855548 120.208138 
L 273.019604 120.174792 
L 273.183661 120.296271 
L 273.511774 120.981312 
L 274.003944 122.915873 
L 275.316396 129.082693 
L 275.644509 129.818614 
L 275.972622 129.980034 
L 276.300735 129.552195 
L 276.628848 128.592603 
L 277.285074 125.615668 
L 278.105357 121.860056 
L 278.43347 120.944338 
L 278.761583 120.555016 
L 278.925639 120.573965 
L 279.253752 121.033087 
L 279.581865 121.995793 
L 280.238092 124.897267 
L 281.058374 128.464557 
L 281.386487 129.304343 
L 281.7146 129.631587 
L 281.878657 129.589243 
L 282.20677 129.102139 
L 282.698939 127.515109 
L 284.175448 121.491481 
L 284.503561 120.966238 
L 284.667618 120.897524 
L 284.831674 120.961484 
L 285.159787 121.473088 
L 285.651957 123.046074 
L 287.128466 128.779618 
L 287.456579 129.240886 
L 287.620635 129.284259 
L 287.948748 128.992773 
L 288.276861 128.237147 
L 288.769031 126.458087 
L 289.917427 122.042469 
L 290.24554 121.414558 
L 290.573653 121.253622 
L 290.901766 121.5747 
L 291.229879 122.333614 
L 291.886105 124.734675 
L 292.706388 127.81113 
L 293.198557 128.804047 
L 293.52667 128.916062 
L 293.854783 128.569542 
L 294.182896 127.811887 
L 294.839122 125.489645 
L 295.659405 122.595186 
L 295.987518 121.90032 
L 296.315631 121.614512 
L 296.643744 121.768008 
L 296.971857 122.336867 
L 297.464027 123.794308 
L 298.612423 127.697852 
L 298.940536 128.323352 
L 299.268649 128.556393 
L 299.596762 128.373442 
L 299.924875 127.802243 
L 300.417044 126.392057 
L 301.56544 122.739461 
L 301.893553 122.181936 
L 302.221666 121.998463 
L 302.549779 122.206231 
L 302.877892 122.774246 
L 303.370062 124.128705 
L 304.518458 127.520815 
L 304.846571 128.011976 
L 305.174684 128.149382 
L 305.502797 127.921776 
L 305.83091 127.3628 
L 306.487136 125.575956 
L 307.307419 123.275053 
L 307.799588 122.523923 
L 308.127701 122.428736 
L 308.455814 122.670861 
L 308.947984 123.578384 
L 310.588549 127.493697 
L 310.916662 127.707104 
L 311.244775 127.607868 
L 311.572888 127.214417 
L 312.065058 126.19896 
L 313.213453 123.481748 
L 313.705623 122.927288 
L 314.033736 122.903504 
L 314.361849 123.15745 
L 314.854019 123.969078 
L 316.330527 126.957509 
L 316.658641 127.206204 
L 316.986754 127.201558 
L 317.314867 126.950849 
L 317.807036 126.201849 
L 319.283545 123.584171 
L 319.611658 123.388216 
L 319.939771 123.415965 
L 320.267884 123.657067 
L 320.760054 124.333708 
L 322.072506 126.428866 
L 322.564676 126.719372 
L 322.892789 126.674167 
L 323.384958 126.279257 
L 324.205241 125.114885 
L 324.861467 124.258805 
L 325.353636 123.929783 
L 325.68175 123.90715 
L 326.173919 124.157409 
L 326.830145 124.859763 
L 327.814484 125.935725 
L 328.306654 126.173225 
L 328.798824 126.126957 
L 329.290993 125.833947 
L 330.275332 124.943195 
L 330.275332 124.943195 
" clip-path="url(#p9ab9d24c7c)" style="fill: none; stroke: #b2b2b2; stroke-width: 2; stroke-linecap: square"/>
   </g>
   <g id="line2d_26">
    <path d="M 84.354598 26.107145 
L 87.635729 26.223918 
L 90.916859 26.573412 
L 94.19799 27.153161 
L 97.479121 27.959088 
L 100.924308 29.042541 
L 104.369495 30.360816 
L 107.978738 31.982787 
L 111.752038 33.927714 
L 115.689395 36.210326 
L 119.954865 38.949912 
L 124.548448 42.176817 
L 129.6342 46.036731 
L 135.376178 50.688469 
L 142.430609 56.71129 
L 153.750509 66.722126 
L 165.562579 77.072774 
L 172.945123 83.245296 
L 179.343328 88.308235 
L 185.249362 92.697026 
L 190.827284 96.56273 
L 196.077093 99.937428 
L 201.326902 103.04818 
L 206.412654 105.807513 
L 211.498407 108.318612 
L 216.584159 110.587117 
L 221.833968 112.683616 
L 227.083777 114.543305 
L 232.497642 116.228463 
L 238.075564 117.736035 
L 243.981599 119.101777 
L 250.215747 120.312978 
L 256.942065 121.386923 
L 264.160552 122.309073 
L 272.035265 123.088663 
L 280.894318 123.73916 
L 291.229879 124.266954 
L 303.698175 124.669269 
L 319.611658 124.948015 
L 330.275332 125.047161 
L 330.275332 125.047161 
" clip-path="url(#p9ab9d24c7c)" style="fill: none; stroke: #4c72b0; stroke-width: 3; stroke-linecap: square"/>
   </g>
   <g id="line2d_27">
    <path d="M 84.354598 224.250038 
L 87.635729 224.133265 
L 90.916859 223.783771 
L 94.19799 223.204022 
L 97.479121 222.398095 
L 100.924308 221.314642 
L 104.369495 219.996367 
L 107.978738 218.374396 
L 111.752038 216.429469 
L 115.689395 214.146856 
L 119.954865 211.40727 
L 124.548448 208.180366 
L 129.6342 204.320452 
L 135.376178 199.668714 
L 142.430609 193.645893 
L 153.750509 183.635057 
L 165.562579 173.284409 
L 172.945123 167.111887 
L 179.343328 162.048948 
L 185.249362 157.660157 
L 190.827284 153.794453 
L 196.077093 150.419755 
L 201.326902 147.309002 
L 206.412654 144.54967 
L 211.498407 142.03857 
L 216.584159 139.770065 
L 221.833968 137.673566 
L 227.083777 135.813878 
L 232.497642 134.12872 
L 238.075564 132.621148 
L 243.981599 131.255405 
L 250.215747 130.044205 
L 256.942065 128.97026 
L 264.160552 128.04811 
L 272.035265 127.268519 
L 280.894318 126.618023 
L 291.229879 126.090228 
L 303.698175 125.687914 
L 319.611658 125.409168 
L 330.275332 125.310022 
L 330.275332 125.310022 
" clip-path="url(#p9ab9d24c7c)" style="fill: none; stroke: #4c72b0; stroke-width: 3; stroke-linecap: square"/>
   </g>
   <g id="line2d_28">
    <path d="M 72.058562 88.732243 
L 342.571369 88.732243 
" clip-path="url(#p9ab9d24c7c)" style="fill: none; stroke-dasharray: 11.1,4.8; stroke-dashoffset: 0; stroke: #c44e52; stroke-width: 3"/>
   </g>
   <g id="line2d_29">
    <path d="M 179.897488 234.157183 
L 179.897488 16.2 
" clip-path="url(#p9ab9d24c7c)" style="fill: none; stroke-dasharray: 11.1,4.8; stroke-dashoffset: 0; stroke: #c44e52; stroke-width: 3"/>
   </g>
   <g id="patch_3">
    <path d="M 72.058562 234.157183 
L 72.058562 16.2 
" style="fill: none; stroke: #000000; stroke-width: 0.8; stroke-linejoin: miter; stroke-linecap: square"/>
   </g>
   <g id="patch_4">
    <path d="M 342.571369 234.157183 
L 342.571369 16.2 
" style="fill: none; stroke: #000000; stroke-width: 0.8; stroke-linejoin: miter; stroke-linecap: square"/>
   </g>
   <g id="patch_5">
    <path d="M 72.058562 234.157183 
L 342.571369 234.157183 
" style="fill: none; stroke: #000000; stroke-width: 0.8; stroke-linejoin: miter; stroke-linecap: square"/>
   </g>
   <g id="patch_6">
    <path d="M 72.058562 16.2 
L 342.571369 16.2 
" style="fill: none; stroke: #000000; stroke-width: 0.8; stroke-linejoin: miter; stroke-linecap: square"/>
   </g>
   <g id="text_15">
    <!-- $\propto\rm{e}^{-(t/T_2^*)^2}$ -->
    <g transform="translate(248.301754 45.921434) scale(0.15 -0.15)">
     <defs>
      <path id="DejaVuSans-221d" d="M 1647 1134 
Q 2163 1134 2472 1884 
Q 2075 2703 1647 2703 
Q 1334 2703 1175 2478 
Q 1006 2238 1006 1919 
Q 1006 1569 1175 1353 
Q 1350 1134 1647 1134 
z
M 3884 1128 
L 3884 716 
L 3644 716 
Q 3416 716 3247 809 
Q 3078 894 2916 1091 
Q 2819 1203 2666 1466 
Q 2456 1091 2272 925 
Q 2044 725 1681 725 
Q 1259 725 981 1041 
Q 688 1372 688 1919 
Q 688 2444 981 2800 
Q 1241 3116 1688 3116 
Q 1916 3116 2084 3022 
Q 2281 2919 2416 2741 
Q 2541 2581 2666 2366 
Q 2875 2741 3059 2906 
Q 3288 3106 3650 3106 
L 3884 3106 
L 3884 2697 
L 3684 2697 
Q 3222 2697 2859 1947 
Q 3256 1128 3684 1128 
L 3884 1128 
z
" transform="scale(0.015625)"/>
      <path id="DejaVuSans-28" d="M 1984 4856 
Q 1566 4138 1362 3434 
Q 1159 2731 1159 2009 
Q 1159 1288 1364 580 
Q 1569 -128 1984 -844 
L 1484 -844 
Q 1016 -109 783 600 
Q 550 1309 550 2009 
Q 550 2706 781 3412 
Q 1013 4119 1484 4856 
L 1984 4856 
z
" transform="scale(0.015625)"/>
      <path id="DejaVuSans-2f" d="M 1625 4666 
L 2156 4666 
L 531 -594 
L 0 -594 
L 1625 4666 
z
" transform="scale(0.015625)"/>
      <path id="DejaVuSans-54" d="M -19 4666 
L 3928 4666 
L 3928 4134 
L 2272 4134 
L 2272 0 
L 1638 0 
L 1638 4134 
L -19 4134 
L -19 4666 
z
" transform="scale(0.015625)"/>
      <path id="DejaVuSans-2a" d="M 3009 3897 
L 1888 3291 
L 3009 2681 
L 2828 2375 
L 1778 3009 
L 1778 1831 
L 1422 1831 
L 1422 3009 
L 372 2375 
L 191 2681 
L 1313 3291 
L 191 3897 
L 372 4206 
L 1422 3572 
L 1422 4750 
L 1778 4750 
L 1778 3572 
L 2828 4206 
L 3009 3897 
z
" transform="scale(0.015625)"/>
      <path id="DejaVuSans-29" d="M 513 4856 
L 1013 4856 
Q 1481 4119 1714 3412 
Q 1947 2706 1947 2009 
Q 1947 1309 1714 600 
Q 1481 -109 1013 -844 
L 513 -844 
Q 928 -128 1133 580 
Q 1338 1288 1338 2009 
Q 1338 2731 1133 3434 
Q 928 4138 513 4856 
z
" transform="scale(0.015625)"/>
     </defs>
     <use xlink:href="#DejaVuSans-221d" transform="translate(19.482422 0.554688)"/>
     <use xlink:href="#DejaVuSans-65" transform="translate(110.400391 0.554688)"/>
     <use xlink:href="#DejaVuSans-2212" transform="translate(172.880859 38.835938) scale(0.7)"/>
     <use xlink:href="#DejaVuSans-28" transform="translate(231.533203 38.835938) scale(0.7)"/>
     <use xlink:href="#DejaVuSans-74" transform="translate(258.842773 38.835938) scale(0.7)"/>
     <use xlink:href="#DejaVuSans-2f" transform="translate(286.289062 38.835938) scale(0.7)"/>
     <use xlink:href="#DejaVuSans-54" transform="translate(309.873047 38.835938) scale(0.7)"/>
     <use xlink:href="#DejaVuSans-2a" transform="translate(362.848145 65.632812) scale(0.49)"/>
     <use xlink:href="#DejaVuSans-32" transform="translate(353.301758 19.695312) scale(0.49)"/>
     <use xlink:href="#DejaVuSans-29" transform="translate(398.808594 38.835938) scale(0.7)"/>
     <use xlink:href="#DejaVuSans-32" transform="translate(426.788086 65.632812) scale(0.49)"/>
    </g>
   </g>
   <g id="text_16">
    <!-- $T_2^*$=5.83$\mu$s -->
    <g transform="translate(248.301754 75.642868) scale(0.15 -0.15)">
     <defs>
      <path id="DejaVuSans-Oblique-54" d="M 378 4666 
L 4325 4666 
L 4225 4134 
L 2559 4134 
L 1759 0 
L 1125 0 
L 1925 4134 
L 275 4134 
L 378 4666 
z
" transform="scale(0.015625)"/>
      <path id="DejaVuSans-3d" d="M 678 2906 
L 4684 2906 
L 4684 2381 
L 678 2381 
L 678 2906 
z
M 678 1631 
L 4684 1631 
L 4684 1100 
L 678 1100 
L 678 1631 
z
" transform="scale(0.015625)"/>
      <path id="DejaVuSans-38" d="M 2034 2216 
Q 1584 2216 1326 1975 
Q 1069 1734 1069 1313 
Q 1069 891 1326 650 
Q 1584 409 2034 409 
Q 2484 409 2743 651 
Q 3003 894 3003 1313 
Q 3003 1734 2745 1975 
Q 2488 2216 2034 2216 
z
M 1403 2484 
Q 997 2584 770 2862 
Q 544 3141 544 3541 
Q 544 4100 942 4425 
Q 1341 4750 2034 4750 
Q 2731 4750 3128 4425 
Q 3525 4100 3525 3541 
Q 3525 3141 3298 2862 
Q 3072 2584 2669 2484 
Q 3125 2378 3379 2068 
Q 3634 1759 3634 1313 
Q 3634 634 3220 271 
Q 2806 -91 2034 -91 
Q 1263 -91 848 271 
Q 434 634 434 1313 
Q 434 1759 690 2068 
Q 947 2378 1403 2484 
z
M 1172 3481 
Q 1172 3119 1398 2916 
Q 1625 2713 2034 2713 
Q 2441 2713 2670 2916 
Q 2900 3119 2900 3481 
Q 2900 3844 2670 4047 
Q 2441 4250 2034 4250 
Q 1625 4250 1398 4047 
Q 1172 3844 1172 3481 
z
" transform="scale(0.015625)"/>
      <path id="DejaVuSans-33" d="M 2597 2516 
Q 3050 2419 3304 2112 
Q 3559 1806 3559 1356 
Q 3559 666 3084 287 
Q 2609 -91 1734 -91 
Q 1441 -91 1130 -33 
Q 819 25 488 141 
L 488 750 
Q 750 597 1062 519 
Q 1375 441 1716 441 
Q 2309 441 2620 675 
Q 2931 909 2931 1356 
Q 2931 1769 2642 2001 
Q 2353 2234 1838 2234 
L 1294 2234 
L 1294 2753 
L 1863 2753 
Q 2328 2753 2575 2939 
Q 2822 3125 2822 3475 
Q 2822 3834 2567 4026 
Q 2313 4219 1838 4219 
Q 1578 4219 1281 4162 
Q 984 4106 628 3988 
L 628 4550 
Q 988 4650 1302 4700 
Q 1616 4750 1894 4750 
Q 2613 4750 3031 4423 
Q 3450 4097 3450 3541 
Q 3450 3153 3228 2886 
Q 3006 2619 2597 2516 
z
" transform="scale(0.015625)"/>
     </defs>
     <use xlink:href="#DejaVuSans-Oblique-54" transform="translate(0 0.765625)"/>
     <use xlink:href="#DejaVuSans-2a" transform="translate(81.738451 39.046875) scale(0.7)"/>
     <use xlink:href="#DejaVuSans-32" transform="translate(61.083984 -26.578125) scale(0.7)"/>
     <use xlink:href="#DejaVuSans-3d" transform="translate(133.110521 0.765625)"/>
     <use xlink:href="#DejaVuSans-35" transform="translate(216.899583 0.765625)"/>
     <use xlink:href="#DejaVuSans-2e" transform="translate(280.52263 0.765625)"/>
     <use xlink:href="#DejaVuSans-38" transform="translate(309.68474 0.765625)"/>
     <use xlink:href="#DejaVuSans-33" transform="translate(373.307786 0.765625)"/>
     <use xlink:href="#DejaVuSans-Oblique-3bc" transform="translate(436.930833 0.765625)"/>
     <use xlink:href="#DejaVuSans-73" transform="translate(500.55388 0.765625)"/>
    </g>
   </g>
  </g>
 </g>
 <defs>
  <clipPath id="p9ab9d24c7c">
   <rect x="72.058562" y="16.2" width="270.512807" height="217.957183"/>
  </clipPath>
 </defs>
</svg>
