<?xml version="1.0" encoding="utf-8" standalone="no"?>
<!DOCTYPE svg PUBLIC "-//W3C//DTD SVG 1.1//EN"
  "http://www.w3.org/Graphics/SVG/1.1/DTD/svg11.dtd">
<svg xmlns:xlink="http://www.w3.org/1999/xlink" width="460.8pt" height="345.6pt" viewBox="0 0 460.8 345.6" xmlns="http://www.w3.org/2000/svg" version="1.1">
 <metadata>
  <rdf:RDF xmlns:dc="http://purl.org/dc/elements/1.1/" xmlns:cc="http://creativecommons.org/ns#" xmlns:rdf="http://www.w3.org/1999/02/22-rdf-syntax-ns#">
   <cc:Work>
    <dc:type rdf:resource="http://purl.org/dc/dcmitype/StillImage"/>
    <dc:date>2025-03-03T12:45:43.092187</dc:date>
    <dc:format>image/svg+xml</dc:format>
    <dc:creator>
     <cc:Agent>
      <dc:title>Matplotlib v3.10.0, https://matplotlib.org/</dc:title>
     </cc:Agent>
    </dc:creator>
   </cc:Work>
  </rdf:RDF>
 </metadata>
 <defs>
  <style type="text/css">*{stroke-linejoin: round; stroke-linecap: butt}</style>
 </defs>
 <g id="figure_1">
  <g id="patch_1">
   <path d="M 0 345.6 
L 460.8 345.6 
L 460.8 0 
L 0 0 
z
" style="fill: #ffffff"/>
  </g>
  <g id="axes_1">
   <g id="patch_2">
    <path d="M 61.588142 291.757183 
L 444.6 291.757183 
L 444.6 98.638685 
L 61.588142 98.638685 
z
" style="fill: #ffffff"/>
   </g>
   <g id="matplotlib.axis_1">
    <g id="xtick_1">
     <g id="line2d_1">
      <path d="M 78.997772 291.757183 
L 78.997772 98.638685 
" clip-path="url(#p03e86ca064)" style="fill: none; stroke-dasharray: 2.96,1.28; stroke-dashoffset: 0; stroke: #b0b0b0; stroke-opacity: 0.7; stroke-width: 0.8"/>
     </g>
     <g id="line2d_2">
      <defs>
       <path id="m49afbc84fb" d="M 0 0 
L 0 3.5 
" style="stroke: #000000; stroke-width: 0.8"/>
      </defs>
      <g>
       <use xlink:href="#m49afbc84fb" x="78.997772" y="291.757183" style="stroke: #000000; stroke-width: 0.8"/>
      </g>
     </g>
     <g id="text_1">
      <!-- 0 -->
      <g transform="translate(75.0228 308.25143) scale(0.12495 -0.12495)">
       <defs>
        <path id="DejaVuSans-30" d="M 2034 4250 
Q 1547 4250 1301 3770 
Q 1056 3291 1056 2328 
Q 1056 1369 1301 889 
Q 1547 409 2034 409 
Q 2525 409 2770 889 
Q 3016 1369 3016 2328 
Q 3016 3291 2770 3770 
Q 2525 4250 2034 4250 
z
M 2034 4750 
Q 2819 4750 3233 4129 
Q 3647 3509 3647 2328 
Q 3647 1150 3233 529 
Q 2819 -91 2034 -91 
Q 1250 -91 836 529 
Q 422 1150 422 2328 
Q 422 3509 836 4129 
Q 1250 4750 2034 4750 
z
" transform="scale(0.015625)"/>
       </defs>
       <use xlink:href="#DejaVuSans-30"/>
      </g>
     </g>
    </g>
    <g id="xtick_2">
     <g id="line2d_3">
      <path d="M 122.521847 291.757183 
L 122.521847 98.638685 
" clip-path="url(#p03e86ca064)" style="fill: none; stroke-dasharray: 2.96,1.28; stroke-dashoffset: 0; stroke: #b0b0b0; stroke-opacity: 0.7; stroke-width: 0.8"/>
     </g>
     <g id="line2d_4">
      <g>
       <use xlink:href="#m49afbc84fb" x="122.521847" y="291.757183" style="stroke: #000000; stroke-width: 0.8"/>
      </g>
     </g>
     <g id="text_2">
      <!-- 10 -->
      <g transform="translate(114.571903 308.25143) scale(0.12495 -0.12495)">
       <defs>
        <path id="DejaVuSans-31" d="M 794 531 
L 1825 531 
L 1825 4091 
L 703 3866 
L 703 4441 
L 1819 4666 
L 2450 4666 
L 2450 531 
L 3481 531 
L 3481 0 
L 794 0 
L 794 531 
z
" transform="scale(0.015625)"/>
       </defs>
       <use xlink:href="#DejaVuSans-31"/>
       <use xlink:href="#DejaVuSans-30" transform="translate(63.623047 0)"/>
      </g>
     </g>
    </g>
    <g id="xtick_3">
     <g id="line2d_5">
      <path d="M 166.045922 291.757183 
L 166.045922 98.638685 
" clip-path="url(#p03e86ca064)" style="fill: none; stroke-dasharray: 2.96,1.28; stroke-dashoffset: 0; stroke: #b0b0b0; stroke-opacity: 0.7; stroke-width: 0.8"/>
     </g>
     <g id="line2d_6">
      <g>
       <use xlink:href="#m49afbc84fb" x="166.045922" y="291.757183" style="stroke: #000000; stroke-width: 0.8"/>
      </g>
     </g>
     <g id="text_3">
      <!-- 20 -->
      <g transform="translate(158.095978 308.25143) scale(0.12495 -0.12495)">
       <defs>
        <path id="DejaVuSans-32" d="M 1228 531 
L 3431 531 
L 3431 0 
L 469 0 
L 469 531 
Q 828 903 1448 1529 
Q 2069 2156 2228 2338 
Q 2531 2678 2651 2914 
Q 2772 3150 2772 3378 
Q 2772 3750 2511 3984 
Q 2250 4219 1831 4219 
Q 1534 4219 1204 4116 
Q 875 4013 500 3803 
L 500 4441 
Q 881 4594 1212 4672 
Q 1544 4750 1819 4750 
Q 2544 4750 2975 4387 
Q 3406 4025 3406 3419 
Q 3406 3131 3298 2873 
Q 3191 2616 2906 2266 
Q 2828 2175 2409 1742 
Q 1991 1309 1228 531 
z
" transform="scale(0.015625)"/>
       </defs>
       <use xlink:href="#DejaVuSans-32"/>
       <use xlink:href="#DejaVuSans-30" transform="translate(63.623047 0)"/>
      </g>
     </g>
    </g>
    <g id="xtick_4">
     <g id="line2d_7">
      <path d="M 209.569996 291.757183 
L 209.569996 98.638685 
" clip-path="url(#p03e86ca064)" style="fill: none; stroke-dasharray: 2.96,1.28; stroke-dashoffset: 0; stroke: #b0b0b0; stroke-opacity: 0.7; stroke-width: 0.8"/>
     </g>
     <g id="line2d_8">
      <g>
       <use xlink:href="#m49afbc84fb" x="209.569996" y="291.757183" style="stroke: #000000; stroke-width: 0.8"/>
      </g>
     </g>
     <g id="text_4">
      <!-- 30 -->
      <g transform="translate(201.620053 308.25143) scale(0.12495 -0.12495)">
       <defs>
        <path id="DejaVuSans-33" d="M 2597 2516 
Q 3050 2419 3304 2112 
Q 3559 1806 3559 1356 
Q 3559 666 3084 287 
Q 2609 -91 1734 -91 
Q 1441 -91 1130 -33 
Q 819 25 488 141 
L 488 750 
Q 750 597 1062 519 
Q 1375 441 1716 441 
Q 2309 441 2620 675 
Q 2931 909 2931 1356 
Q 2931 1769 2642 2001 
Q 2353 2234 1838 2234 
L 1294 2234 
L 1294 2753 
L 1863 2753 
Q 2328 2753 2575 2939 
Q 2822 3125 2822 3475 
Q 2822 3834 2567 4026 
Q 2313 4219 1838 4219 
Q 1578 4219 1281 4162 
Q 984 4106 628 3988 
L 628 4550 
Q 988 4650 1302 4700 
Q 1616 4750 1894 4750 
Q 2613 4750 3031 4423 
Q 3450 4097 3450 3541 
Q 3450 3153 3228 2886 
Q 3006 2619 2597 2516 
z
" transform="scale(0.015625)"/>
       </defs>
       <use xlink:href="#DejaVuSans-33"/>
       <use xlink:href="#DejaVuSans-30" transform="translate(63.623047 0)"/>
      </g>
     </g>
    </g>
    <g id="xtick_5">
     <g id="line2d_9">
      <path d="M 253.094071 291.757183 
L 253.094071 98.638685 
" clip-path="url(#p03e86ca064)" style="fill: none; stroke-dasharray: 2.96,1.28; stroke-dashoffset: 0; stroke: #b0b0b0; stroke-opacity: 0.7; stroke-width: 0.8"/>
     </g>
     <g id="line2d_10">
      <g>
       <use xlink:href="#m49afbc84fb" x="253.094071" y="291.757183" style="stroke: #000000; stroke-width: 0.8"/>
      </g>
     </g>
     <g id="text_5">
      <!-- 40 -->
      <g transform="translate(245.144127 308.25143) scale(0.12495 -0.12495)">
       <defs>
        <path id="DejaVuSans-34" d="M 2419 4116 
L 825 1625 
L 2419 1625 
L 2419 4116 
z
M 2253 4666 
L 3047 4666 
L 3047 1625 
L 3713 1625 
L 3713 1100 
L 3047 1100 
L 3047 0 
L 2419 0 
L 2419 1100 
L 313 1100 
L 313 1709 
L 2253 4666 
z
" transform="scale(0.015625)"/>
       </defs>
       <use xlink:href="#DejaVuSans-34"/>
       <use xlink:href="#DejaVuSans-30" transform="translate(63.623047 0)"/>
      </g>
     </g>
    </g>
    <g id="xtick_6">
     <g id="line2d_11">
      <path d="M 296.618146 291.757183 
L 296.618146 98.638685 
" clip-path="url(#p03e86ca064)" style="fill: none; stroke-dasharray: 2.96,1.28; stroke-dashoffset: 0; stroke: #b0b0b0; stroke-opacity: 0.7; stroke-width: 0.8"/>
     </g>
     <g id="line2d_12">
      <g>
       <use xlink:href="#m49afbc84fb" x="296.618146" y="291.757183" style="stroke: #000000; stroke-width: 0.8"/>
      </g>
     </g>
     <g id="text_6">
      <!-- 50 -->
      <g transform="translate(288.668202 308.25143) scale(0.12495 -0.12495)">
       <defs>
        <path id="DejaVuSans-35" d="M 691 4666 
L 3169 4666 
L 3169 4134 
L 1269 4134 
L 1269 2991 
Q 1406 3038 1543 3061 
Q 1681 3084 1819 3084 
Q 2600 3084 3056 2656 
Q 3513 2228 3513 1497 
Q 3513 744 3044 326 
Q 2575 -91 1722 -91 
Q 1428 -91 1123 -41 
Q 819 9 494 109 
L 494 744 
Q 775 591 1075 516 
Q 1375 441 1709 441 
Q 2250 441 2565 725 
Q 2881 1009 2881 1497 
Q 2881 1984 2565 2268 
Q 2250 2553 1709 2553 
Q 1456 2553 1204 2497 
Q 953 2441 691 2322 
L 691 4666 
z
" transform="scale(0.015625)"/>
       </defs>
       <use xlink:href="#DejaVuSans-35"/>
       <use xlink:href="#DejaVuSans-30" transform="translate(63.623047 0)"/>
      </g>
     </g>
    </g>
    <g id="xtick_7">
     <g id="line2d_13">
      <path d="M 340.142221 291.757183 
L 340.142221 98.638685 
" clip-path="url(#p03e86ca064)" style="fill: none; stroke-dasharray: 2.96,1.28; stroke-dashoffset: 0; stroke: #b0b0b0; stroke-opacity: 0.7; stroke-width: 0.8"/>
     </g>
     <g id="line2d_14">
      <g>
       <use xlink:href="#m49afbc84fb" x="340.142221" y="291.757183" style="stroke: #000000; stroke-width: 0.8"/>
      </g>
     </g>
     <g id="text_7">
      <!-- 60 -->
      <g transform="translate(332.192277 308.25143) scale(0.12495 -0.12495)">
       <defs>
        <path id="DejaVuSans-36" d="M 2113 2584 
Q 1688 2584 1439 2293 
Q 1191 2003 1191 1497 
Q 1191 994 1439 701 
Q 1688 409 2113 409 
Q 2538 409 2786 701 
Q 3034 994 3034 1497 
Q 3034 2003 2786 2293 
Q 2538 2584 2113 2584 
z
M 3366 4563 
L 3366 3988 
Q 3128 4100 2886 4159 
Q 2644 4219 2406 4219 
Q 1781 4219 1451 3797 
Q 1122 3375 1075 2522 
Q 1259 2794 1537 2939 
Q 1816 3084 2150 3084 
Q 2853 3084 3261 2657 
Q 3669 2231 3669 1497 
Q 3669 778 3244 343 
Q 2819 -91 2113 -91 
Q 1303 -91 875 529 
Q 447 1150 447 2328 
Q 447 3434 972 4092 
Q 1497 4750 2381 4750 
Q 2619 4750 2861 4703 
Q 3103 4656 3366 4563 
z
" transform="scale(0.015625)"/>
       </defs>
       <use xlink:href="#DejaVuSans-36"/>
       <use xlink:href="#DejaVuSans-30" transform="translate(63.623047 0)"/>
      </g>
     </g>
    </g>
    <g id="xtick_8">
     <g id="line2d_15">
      <path d="M 383.666295 291.757183 
L 383.666295 98.638685 
" clip-path="url(#p03e86ca064)" style="fill: none; stroke-dasharray: 2.96,1.28; stroke-dashoffset: 0; stroke: #b0b0b0; stroke-opacity: 0.7; stroke-width: 0.8"/>
     </g>
     <g id="line2d_16">
      <g>
       <use xlink:href="#m49afbc84fb" x="383.666295" y="291.757183" style="stroke: #000000; stroke-width: 0.8"/>
      </g>
     </g>
     <g id="text_8">
      <!-- 70 -->
      <g transform="translate(375.716352 308.25143) scale(0.12495 -0.12495)">
       <defs>
        <path id="DejaVuSans-37" d="M 525 4666 
L 3525 4666 
L 3525 4397 
L 1831 0 
L 1172 0 
L 2766 4134 
L 525 4134 
L 525 4666 
z
" transform="scale(0.015625)"/>
       </defs>
       <use xlink:href="#DejaVuSans-37"/>
       <use xlink:href="#DejaVuSans-30" transform="translate(63.623047 0)"/>
      </g>
     </g>
    </g>
    <g id="xtick_9">
     <g id="line2d_17">
      <path d="M 427.19037 291.757183 
L 427.19037 98.638685 
" clip-path="url(#p03e86ca064)" style="fill: none; stroke-dasharray: 2.96,1.28; stroke-dashoffset: 0; stroke: #b0b0b0; stroke-opacity: 0.7; stroke-width: 0.8"/>
     </g>
     <g id="line2d_18">
      <g>
       <use xlink:href="#m49afbc84fb" x="427.19037" y="291.757183" style="stroke: #000000; stroke-width: 0.8"/>
      </g>
     </g>
     <g id="text_9">
      <!-- 80 -->
      <g transform="translate(419.240426 308.25143) scale(0.12495 -0.12495)">
       <defs>
        <path id="DejaVuSans-38" d="M 2034 2216 
Q 1584 2216 1326 1975 
Q 1069 1734 1069 1313 
Q 1069 891 1326 650 
Q 1584 409 2034 409 
Q 2484 409 2743 651 
Q 3003 894 3003 1313 
Q 3003 1734 2745 1975 
Q 2488 2216 2034 2216 
z
M 1403 2484 
Q 997 2584 770 2862 
Q 544 3141 544 3541 
Q 544 4100 942 4425 
Q 1341 4750 2034 4750 
Q 2731 4750 3128 4425 
Q 3525 4100 3525 3541 
Q 3525 3141 3298 2862 
Q 3072 2584 2669 2484 
Q 3125 2378 3379 2068 
Q 3634 1759 3634 1313 
Q 3634 634 3220 271 
Q 2806 -91 2034 -91 
Q 1263 -91 848 271 
Q 434 634 434 1313 
Q 434 1759 690 2068 
Q 947 2378 1403 2484 
z
M 1172 3481 
Q 1172 3119 1398 2916 
Q 1625 2713 2034 2713 
Q 2441 2713 2670 2916 
Q 2900 3119 2900 3481 
Q 2900 3844 2670 4047 
Q 2441 4250 2034 4250 
Q 1625 4250 1398 4047 
Q 1172 3844 1172 3481 
z
" transform="scale(0.015625)"/>
       </defs>
       <use xlink:href="#DejaVuSans-38"/>
       <use xlink:href="#DejaVuSans-30" transform="translate(63.623047 0)"/>
      </g>
     </g>
    </g>
    <g id="text_10">
     <!-- Time [$\mu$s] -->
     <g transform="translate(217.544071 326.25) scale(0.15 -0.15)">
      <defs>
       <path id="DejaVuSans-54" d="M -19 4666 
L 3928 4666 
L 3928 4134 
L 2272 4134 
L 2272 0 
L 1638 0 
L 1638 4134 
L -19 4134 
L -19 4666 
z
" transform="scale(0.015625)"/>
       <path id="DejaVuSans-69" d="M 603 3500 
L 1178 3500 
L 1178 0 
L 603 0 
L 603 3500 
z
M 603 4863 
L 1178 4863 
L 1178 4134 
L 603 4134 
L 603 4863 
z
" transform="scale(0.015625)"/>
       <path id="DejaVuSans-6d" d="M 3328 2828 
Q 3544 3216 3844 3400 
Q 4144 3584 4550 3584 
Q 5097 3584 5394 3201 
Q 5691 2819 5691 2113 
L 5691 0 
L 5113 0 
L 5113 2094 
Q 5113 2597 4934 2840 
Q 4756 3084 4391 3084 
Q 3944 3084 3684 2787 
Q 3425 2491 3425 1978 
L 3425 0 
L 2847 0 
L 2847 2094 
Q 2847 2600 2669 2842 
Q 2491 3084 2119 3084 
Q 1678 3084 1418 2786 
Q 1159 2488 1159 1978 
L 1159 0 
L 581 0 
L 581 3500 
L 1159 3500 
L 1159 2956 
Q 1356 3278 1631 3431 
Q 1906 3584 2284 3584 
Q 2666 3584 2933 3390 
Q 3200 3197 3328 2828 
z
" transform="scale(0.015625)"/>
       <path id="DejaVuSans-65" d="M 3597 1894 
L 3597 1613 
L 953 1613 
Q 991 1019 1311 708 
Q 1631 397 2203 397 
Q 2534 397 2845 478 
Q 3156 559 3463 722 
L 3463 178 
Q 3153 47 2828 -22 
Q 2503 -91 2169 -91 
Q 1331 -91 842 396 
Q 353 884 353 1716 
Q 353 2575 817 3079 
Q 1281 3584 2069 3584 
Q 2775 3584 3186 3129 
Q 3597 2675 3597 1894 
z
M 3022 2063 
Q 3016 2534 2758 2815 
Q 2500 3097 2075 3097 
Q 1594 3097 1305 2825 
Q 1016 2553 972 2059 
L 3022 2063 
z
" transform="scale(0.015625)"/>
       <path id="DejaVuSans-20" transform="scale(0.015625)"/>
       <path id="DejaVuSans-5b" d="M 550 4863 
L 1875 4863 
L 1875 4416 
L 1125 4416 
L 1125 -397 
L 1875 -397 
L 1875 -844 
L 550 -844 
L 550 4863 
z
" transform="scale(0.015625)"/>
       <path id="DejaVuSans-Oblique-3bc" d="M -84 -1331 
L 856 3500 
L 1434 3500 
L 1009 1322 
Q 997 1256 987 1175 
Q 978 1094 978 1013 
Q 978 722 1161 565 
Q 1344 409 1684 409 
Q 2147 409 2431 671 
Q 2716 934 2816 1459 
L 3213 3500 
L 3788 3500 
L 3266 809 
Q 3253 750 3248 706 
Q 3244 663 3244 628 
Q 3244 531 3283 486 
Q 3322 441 3406 441 
Q 3438 441 3492 456 
Q 3547 472 3647 513 
L 3559 50 
Q 3422 -19 3297 -55 
Q 3172 -91 3053 -91 
Q 2847 -91 2730 40 
Q 2613 172 2613 403 
Q 2438 153 2195 31 
Q 1953 -91 1625 -91 
Q 1334 -91 1117 43 
Q 900 178 831 397 
L 494 -1331 
L -84 -1331 
z
" transform="scale(0.015625)"/>
       <path id="DejaVuSans-73" d="M 2834 3397 
L 2834 2853 
Q 2591 2978 2328 3040 
Q 2066 3103 1784 3103 
Q 1356 3103 1142 2972 
Q 928 2841 928 2578 
Q 928 2378 1081 2264 
Q 1234 2150 1697 2047 
L 1894 2003 
Q 2506 1872 2764 1633 
Q 3022 1394 3022 966 
Q 3022 478 2636 193 
Q 2250 -91 1575 -91 
Q 1294 -91 989 -36 
Q 684 19 347 128 
L 347 722 
Q 666 556 975 473 
Q 1284 391 1588 391 
Q 1994 391 2212 530 
Q 2431 669 2431 922 
Q 2431 1156 2273 1281 
Q 2116 1406 1581 1522 
L 1381 1569 
Q 847 1681 609 1914 
Q 372 2147 372 2553 
Q 372 3047 722 3315 
Q 1072 3584 1716 3584 
Q 2034 3584 2315 3537 
Q 2597 3491 2834 3397 
z
" transform="scale(0.015625)"/>
       <path id="DejaVuSans-5d" d="M 1947 4863 
L 1947 -844 
L 622 -844 
L 622 -397 
L 1369 -397 
L 1369 4416 
L 622 4416 
L 622 4863 
L 1947 4863 
z
" transform="scale(0.015625)"/>
      </defs>
      <use xlink:href="#DejaVuSans-54" transform="translate(0 0.015625)"/>
      <use xlink:href="#DejaVuSans-69" transform="translate(61.083984 0.015625)"/>
      <use xlink:href="#DejaVuSans-6d" transform="translate(88.867188 0.015625)"/>
      <use xlink:href="#DejaVuSans-65" transform="translate(186.279297 0.015625)"/>
      <use xlink:href="#DejaVuSans-20" transform="translate(247.802734 0.015625)"/>
      <use xlink:href="#DejaVuSans-5b" transform="translate(279.589844 0.015625)"/>
      <use xlink:href="#DejaVuSans-Oblique-3bc" transform="translate(318.603516 0.015625)"/>
      <use xlink:href="#DejaVuSans-73" transform="translate(382.226562 0.015625)"/>
      <use xlink:href="#DejaVuSans-5d" transform="translate(434.326172 0.015625)"/>
     </g>
    </g>
   </g>
   <g id="matplotlib.axis_2">
    <g id="ytick_1">
     <g id="line2d_19">
      <path d="M 61.588142 283.547516 
L 444.6 283.547516 
" clip-path="url(#p03e86ca064)" style="fill: none; stroke-dasharray: 2.96,1.28; stroke-dashoffset: 0; stroke: #b0b0b0; stroke-opacity: 0.7; stroke-width: 0.8"/>
     </g>
     <g id="line2d_20">
      <defs>
       <path id="m01a079fa4f" d="M 0 0 
L -3.5 0 
" style="stroke: #000000; stroke-width: 0.8"/>
      </defs>
      <g>
       <use xlink:href="#m01a079fa4f" x="61.588142" y="283.547516" style="stroke: #000000; stroke-width: 0.8"/>
      </g>
     </g>
     <g id="text_11">
      <!-- 0.2 -->
      <g transform="translate(34.717187 288.294639) scale(0.12495 -0.12495)">
       <defs>
        <path id="DejaVuSans-2e" d="M 684 794 
L 1344 794 
L 1344 0 
L 684 0 
L 684 794 
z
" transform="scale(0.015625)"/>
       </defs>
       <use xlink:href="#DejaVuSans-30"/>
       <use xlink:href="#DejaVuSans-2e" transform="translate(63.623047 0)"/>
       <use xlink:href="#DejaVuSans-32" transform="translate(95.410156 0)"/>
      </g>
     </g>
    </g>
    <g id="ytick_2">
     <g id="line2d_21">
      <path d="M 61.588142 254.098637 
L 444.6 254.098637 
" clip-path="url(#p03e86ca064)" style="fill: none; stroke-dasharray: 2.96,1.28; stroke-dashoffset: 0; stroke: #b0b0b0; stroke-opacity: 0.7; stroke-width: 0.8"/>
     </g>
     <g id="line2d_22">
      <g>
       <use xlink:href="#m01a079fa4f" x="61.588142" y="254.098637" style="stroke: #000000; stroke-width: 0.8"/>
      </g>
     </g>
     <g id="text_12">
      <!-- 0.3 -->
      <g transform="translate(34.717187 258.84576) scale(0.12495 -0.12495)">
       <use xlink:href="#DejaVuSans-30"/>
       <use xlink:href="#DejaVuSans-2e" transform="translate(63.623047 0)"/>
       <use xlink:href="#DejaVuSans-33" transform="translate(95.410156 0)"/>
      </g>
     </g>
    </g>
    <g id="ytick_3">
     <g id="line2d_23">
      <path d="M 61.588142 224.649758 
L 444.6 224.649758 
" clip-path="url(#p03e86ca064)" style="fill: none; stroke-dasharray: 2.96,1.28; stroke-dashoffset: 0; stroke: #b0b0b0; stroke-opacity: 0.7; stroke-width: 0.8"/>
     </g>
     <g id="line2d_24">
      <g>
       <use xlink:href="#m01a079fa4f" x="61.588142" y="224.649758" style="stroke: #000000; stroke-width: 0.8"/>
      </g>
     </g>
     <g id="text_13">
      <!-- 0.4 -->
      <g transform="translate(34.717187 229.396881) scale(0.12495 -0.12495)">
       <use xlink:href="#DejaVuSans-30"/>
       <use xlink:href="#DejaVuSans-2e" transform="translate(63.623047 0)"/>
       <use xlink:href="#DejaVuSans-34" transform="translate(95.410156 0)"/>
      </g>
     </g>
    </g>
    <g id="ytick_4">
     <g id="line2d_25">
      <path d="M 61.588142 195.200879 
L 444.6 195.200879 
" clip-path="url(#p03e86ca064)" style="fill: none; stroke-dasharray: 2.96,1.28; stroke-dashoffset: 0; stroke: #b0b0b0; stroke-opacity: 0.7; stroke-width: 0.8"/>
     </g>
     <g id="line2d_26">
      <g>
       <use xlink:href="#m01a079fa4f" x="61.588142" y="195.200879" style="stroke: #000000; stroke-width: 0.8"/>
      </g>
     </g>
     <g id="text_14">
      <!-- 0.5 -->
      <g transform="translate(34.717187 199.948002) scale(0.12495 -0.12495)">
       <use xlink:href="#DejaVuSans-30"/>
       <use xlink:href="#DejaVuSans-2e" transform="translate(63.623047 0)"/>
       <use xlink:href="#DejaVuSans-35" transform="translate(95.410156 0)"/>
      </g>
     </g>
    </g>
    <g id="ytick_5">
     <g id="line2d_27">
      <path d="M 61.588142 165.752 
L 444.6 165.752 
" clip-path="url(#p03e86ca064)" style="fill: none; stroke-dasharray: 2.96,1.28; stroke-dashoffset: 0; stroke: #b0b0b0; stroke-opacity: 0.7; stroke-width: 0.8"/>
     </g>
     <g id="line2d_28">
      <g>
       <use xlink:href="#m01a079fa4f" x="61.588142" y="165.752" style="stroke: #000000; stroke-width: 0.8"/>
      </g>
     </g>
     <g id="text_15">
      <!-- 0.6 -->
      <g transform="translate(34.717187 170.499123) scale(0.12495 -0.12495)">
       <use xlink:href="#DejaVuSans-30"/>
       <use xlink:href="#DejaVuSans-2e" transform="translate(63.623047 0)"/>
       <use xlink:href="#DejaVuSans-36" transform="translate(95.410156 0)"/>
      </g>
     </g>
    </g>
    <g id="ytick_6">
     <g id="line2d_29">
      <path d="M 61.588142 136.303121 
L 444.6 136.303121 
" clip-path="url(#p03e86ca064)" style="fill: none; stroke-dasharray: 2.96,1.28; stroke-dashoffset: 0; stroke: #b0b0b0; stroke-opacity: 0.7; stroke-width: 0.8"/>
     </g>
     <g id="line2d_30">
      <g>
       <use xlink:href="#m01a079fa4f" x="61.588142" y="136.303121" style="stroke: #000000; stroke-width: 0.8"/>
      </g>
     </g>
     <g id="text_16">
      <!-- 0.7 -->
      <g transform="translate(34.717187 141.050244) scale(0.12495 -0.12495)">
       <use xlink:href="#DejaVuSans-30"/>
       <use xlink:href="#DejaVuSans-2e" transform="translate(63.623047 0)"/>
       <use xlink:href="#DejaVuSans-37" transform="translate(95.410156 0)"/>
      </g>
     </g>
    </g>
    <g id="ytick_7">
     <g id="line2d_31">
      <path d="M 61.588142 106.854242 
L 444.6 106.854242 
" clip-path="url(#p03e86ca064)" style="fill: none; stroke-dasharray: 2.96,1.28; stroke-dashoffset: 0; stroke: #b0b0b0; stroke-opacity: 0.7; stroke-width: 0.8"/>
     </g>
     <g id="line2d_32">
      <g>
       <use xlink:href="#m01a079fa4f" x="61.588142" y="106.854242" style="stroke: #000000; stroke-width: 0.8"/>
      </g>
     </g>
     <g id="text_17">
      <!-- 0.8 -->
      <g transform="translate(34.717187 111.601365) scale(0.12495 -0.12495)">
       <use xlink:href="#DejaVuSans-30"/>
       <use xlink:href="#DejaVuSans-2e" transform="translate(63.623047 0)"/>
       <use xlink:href="#DejaVuSans-38" transform="translate(95.410156 0)"/>
      </g>
     </g>
    </g>
    <g id="text_18">
     <!-- Population -->
     <g transform="translate(27.597656 234.597543) rotate(-90) scale(0.15 -0.15)">
      <defs>
       <path id="DejaVuSans-50" d="M 1259 4147 
L 1259 2394 
L 2053 2394 
Q 2494 2394 2734 2622 
Q 2975 2850 2975 3272 
Q 2975 3691 2734 3919 
Q 2494 4147 2053 4147 
L 1259 4147 
z
M 628 4666 
L 2053 4666 
Q 2838 4666 3239 4311 
Q 3641 3956 3641 3272 
Q 3641 2581 3239 2228 
Q 2838 1875 2053 1875 
L 1259 1875 
L 1259 0 
L 628 0 
L 628 4666 
z
" transform="scale(0.015625)"/>
       <path id="DejaVuSans-6f" d="M 1959 3097 
Q 1497 3097 1228 2736 
Q 959 2375 959 1747 
Q 959 1119 1226 758 
Q 1494 397 1959 397 
Q 2419 397 2687 759 
Q 2956 1122 2956 1747 
Q 2956 2369 2687 2733 
Q 2419 3097 1959 3097 
z
M 1959 3584 
Q 2709 3584 3137 3096 
Q 3566 2609 3566 1747 
Q 3566 888 3137 398 
Q 2709 -91 1959 -91 
Q 1206 -91 779 398 
Q 353 888 353 1747 
Q 353 2609 779 3096 
Q 1206 3584 1959 3584 
z
" transform="scale(0.015625)"/>
       <path id="DejaVuSans-70" d="M 1159 525 
L 1159 -1331 
L 581 -1331 
L 581 3500 
L 1159 3500 
L 1159 2969 
Q 1341 3281 1617 3432 
Q 1894 3584 2278 3584 
Q 2916 3584 3314 3078 
Q 3713 2572 3713 1747 
Q 3713 922 3314 415 
Q 2916 -91 2278 -91 
Q 1894 -91 1617 61 
Q 1341 213 1159 525 
z
M 3116 1747 
Q 3116 2381 2855 2742 
Q 2594 3103 2138 3103 
Q 1681 3103 1420 2742 
Q 1159 2381 1159 1747 
Q 1159 1113 1420 752 
Q 1681 391 2138 391 
Q 2594 391 2855 752 
Q 3116 1113 3116 1747 
z
" transform="scale(0.015625)"/>
       <path id="DejaVuSans-75" d="M 544 1381 
L 544 3500 
L 1119 3500 
L 1119 1403 
Q 1119 906 1312 657 
Q 1506 409 1894 409 
Q 2359 409 2629 706 
Q 2900 1003 2900 1516 
L 2900 3500 
L 3475 3500 
L 3475 0 
L 2900 0 
L 2900 538 
Q 2691 219 2414 64 
Q 2138 -91 1772 -91 
Q 1169 -91 856 284 
Q 544 659 544 1381 
z
M 1991 3584 
L 1991 3584 
z
" transform="scale(0.015625)"/>
       <path id="DejaVuSans-6c" d="M 603 4863 
L 1178 4863 
L 1178 0 
L 603 0 
L 603 4863 
z
" transform="scale(0.015625)"/>
       <path id="DejaVuSans-61" d="M 2194 1759 
Q 1497 1759 1228 1600 
Q 959 1441 959 1056 
Q 959 750 1161 570 
Q 1363 391 1709 391 
Q 2188 391 2477 730 
Q 2766 1069 2766 1631 
L 2766 1759 
L 2194 1759 
z
M 3341 1997 
L 3341 0 
L 2766 0 
L 2766 531 
Q 2569 213 2275 61 
Q 1981 -91 1556 -91 
Q 1019 -91 701 211 
Q 384 513 384 1019 
Q 384 1609 779 1909 
Q 1175 2209 1959 2209 
L 2766 2209 
L 2766 2266 
Q 2766 2663 2505 2880 
Q 2244 3097 1772 3097 
Q 1472 3097 1187 3025 
Q 903 2953 641 2809 
L 641 3341 
Q 956 3463 1253 3523 
Q 1550 3584 1831 3584 
Q 2591 3584 2966 3190 
Q 3341 2797 3341 1997 
z
" transform="scale(0.015625)"/>
       <path id="DejaVuSans-74" d="M 1172 4494 
L 1172 3500 
L 2356 3500 
L 2356 3053 
L 1172 3053 
L 1172 1153 
Q 1172 725 1289 603 
Q 1406 481 1766 481 
L 2356 481 
L 2356 0 
L 1766 0 
Q 1100 0 847 248 
Q 594 497 594 1153 
L 594 3053 
L 172 3053 
L 172 3500 
L 594 3500 
L 594 4494 
L 1172 4494 
z
" transform="scale(0.015625)"/>
       <path id="DejaVuSans-6e" d="M 3513 2113 
L 3513 0 
L 2938 0 
L 2938 2094 
Q 2938 2591 2744 2837 
Q 2550 3084 2163 3084 
Q 1697 3084 1428 2787 
Q 1159 2491 1159 1978 
L 1159 0 
L 581 0 
L 581 3500 
L 1159 3500 
L 1159 2956 
Q 1366 3272 1645 3428 
Q 1925 3584 2291 3584 
Q 2894 3584 3203 3211 
Q 3513 2838 3513 2113 
z
" transform="scale(0.015625)"/>
      </defs>
      <use xlink:href="#DejaVuSans-50"/>
      <use xlink:href="#DejaVuSans-6f" transform="translate(56.677734 0)"/>
      <use xlink:href="#DejaVuSans-70" transform="translate(117.859375 0)"/>
      <use xlink:href="#DejaVuSans-75" transform="translate(181.335938 0)"/>
      <use xlink:href="#DejaVuSans-6c" transform="translate(244.714844 0)"/>
      <use xlink:href="#DejaVuSans-61" transform="translate(272.498047 0)"/>
      <use xlink:href="#DejaVuSans-74" transform="translate(333.777344 0)"/>
      <use xlink:href="#DejaVuSans-69" transform="translate(372.986328 0)"/>
      <use xlink:href="#DejaVuSans-6f" transform="translate(400.769531 0)"/>
      <use xlink:href="#DejaVuSans-6e" transform="translate(461.951172 0)"/>
     </g>
    </g>
   </g>
   <g id="line2d_33">
    <path d="M 78.997772 195.197934 
L 84.246907 164.624853 
L 87.74633 146.26582 
L 89.496041 138.098525 
L 91.245753 130.754854 
L 92.995464 124.324778 
L 94.745176 118.878835 
L 96.494888 114.466955 
L 98.244599 111.117818 
L 99.994311 108.838766 
L 101.744022 107.61625 
L 103.493734 107.416798 
L 105.243445 108.188469 
L 106.993157 109.862727 
L 108.742868 112.356697 
L 110.49258 115.575708 
L 112.242291 119.416058 
L 113.992003 123.76791 
L 117.491426 133.553737 
L 126.239984 159.355276 
L 129.739407 168.384999 
L 131.489119 172.389241 
L 133.23883 176.014438 
L 134.988542 179.247914 
L 136.738253 182.089124 
L 138.487965 184.548507 
L 140.237676 186.646069 
L 141.987388 188.409744 
L 143.737099 189.873621 
L 145.486811 191.076074 
L 147.236522 192.057887 
L 148.986234 192.860424 
L 152.485657 194.08589 
L 157.734792 195.471467 
L 171.732484 198.951454 
L 175.231907 199.425523 
L 176.981619 199.496945 
L 178.73133 199.432607 
L 180.481042 199.217385 
L 182.230753 198.84039 
L 183.980465 198.295692 
L 185.730177 197.582841 
L 187.479888 196.707164 
L 189.2296 195.679825 
L 192.729023 193.24279 
L 197.978157 189.028736 
L 201.47758 186.233505 
L 204.977004 183.785879 
L 206.726715 182.777956 
L 208.476427 181.953943 
L 210.226138 181.338703 
L 211.97585 180.952117 
L 213.725561 180.80855 
L 215.475273 180.916497 
L 217.224984 181.278432 
L 218.974696 181.890852 
L 220.724407 182.744502 
L 222.474119 183.824791 
L 224.223831 185.112356 
L 225.973542 186.583764 
L 229.472965 189.968945 
L 232.972388 193.743726 
L 239.971234 201.499688 
L 243.470658 205.06899 
L 246.970081 208.240739 
L 250.469504 210.945421 
L 253.968927 213.169785 
L 257.46835 214.944891 
L 260.967773 216.328887 
L 264.467196 217.387678 
L 267.966619 218.176733 
L 271.466042 218.726898 
L 274.965465 219.036305 
L 278.464889 219.069363 
L 281.964312 218.76265 
L 283.714023 218.457206 
L 285.463735 218.036451 
L 287.213446 217.490357 
L 288.963158 216.809833 
L 290.712869 215.987211 
L 292.462581 215.016679 
L 294.212292 213.894656 
L 295.962004 212.620083 
L 297.711716 211.194633 
L 301.211139 207.912029 
L 304.710562 204.11666 
L 308.209985 199.919195 
L 313.459119 193.18548 
L 320.457966 184.240212 
L 323.957389 180.126928 
L 327.456812 176.418011 
L 330.956235 173.198182 
L 334.455658 170.519392 
L 336.20537 169.391021 
L 337.955081 168.404617 
L 339.704793 167.559689 
L 341.454504 166.85492 
L 343.204216 166.288457 
L 344.953927 165.858172 
L 346.703639 165.561906 
L 348.45335 165.397667 
L 350.203062 165.363785 
L 351.952774 165.459002 
L 353.702485 165.682519 
L 355.452197 166.033968 
L 357.201908 166.51334 
L 358.95162 167.120848 
L 360.701331 167.856755 
L 362.451043 168.721161 
L 365.950466 170.833616 
L 369.449889 173.446524 
L 372.949312 176.530243 
L 376.448735 180.031251 
L 379.948158 183.86918 
L 385.197293 190.019199 
L 392.196139 198.253284 
L 395.695562 202.070221 
L 399.194985 205.519519 
L 402.694408 208.50605 
L 406.193832 210.968332 
L 407.943543 211.993698 
L 409.693255 212.881528 
L 411.442966 213.634182 
L 413.192678 214.255871 
L 414.942389 214.752383 
L 418.441812 215.39898 
L 421.941235 215.639081 
L 425.440659 215.540689 
L 427.19037 215.383889 
L 427.19037 215.383889 
" clip-path="url(#p03e86ca064)" style="fill: none; stroke: #8c8c8c; stroke-width: 2; stroke-linecap: square"/>
   </g>
   <g id="line2d_34">
    <path d="M 78.997772 195.197934 
L 84.246907 225.771014 
L 87.74633 244.130047 
L 89.496041 252.297343 
L 91.245753 259.641014 
L 92.995464 266.07109 
L 94.745176 271.517032 
L 96.494888 275.928912 
L 98.244599 279.278049 
L 99.994311 281.557101 
L 101.744022 282.779618 
L 103.493734 282.979069 
L 105.243445 282.207399 
L 106.993157 280.533141 
L 108.742868 278.039171 
L 110.49258 274.82016 
L 112.242291 270.97981 
L 113.992003 266.627957 
L 117.491426 256.84213 
L 126.239984 231.040591 
L 129.739407 222.010869 
L 131.489119 218.006626 
L 133.23883 214.38143 
L 134.988542 211.147954 
L 136.738253 208.306744 
L 138.487965 205.84736 
L 140.237676 203.749799 
L 141.987388 201.986123 
L 143.737099 200.522247 
L 145.486811 199.319793 
L 147.236522 198.33798 
L 148.986234 197.535443 
L 152.485657 196.309977 
L 157.734792 194.9244 
L 171.732484 191.444414 
L 175.231907 190.970344 
L 176.981619 190.898923 
L 178.73133 190.963261 
L 180.481042 191.178482 
L 182.230753 191.555477 
L 183.980465 192.100175 
L 185.730177 192.813026 
L 187.479888 193.688704 
L 189.2296 194.716043 
L 192.729023 197.153078 
L 197.978157 201.367131 
L 201.47758 204.162363 
L 204.977004 206.609988 
L 206.726715 207.617912 
L 208.476427 208.441925 
L 210.226138 209.057165 
L 211.97585 209.44375 
L 213.725561 209.587318 
L 215.475273 209.479371 
L 217.224984 209.117435 
L 218.974696 208.505015 
L 220.724407 207.651365 
L 222.474119 206.571076 
L 224.223831 205.283511 
L 225.973542 203.812103 
L 229.472965 200.426923 
L 232.972388 196.652141 
L 239.971234 188.896179 
L 243.470658 185.326878 
L 246.970081 182.155128 
L 250.469504 179.450447 
L 253.968927 177.226082 
L 257.46835 175.450976 
L 260.967773 174.066981 
L 264.467196 173.008189 
L 267.966619 172.219134 
L 271.466042 171.668969 
L 274.965465 171.359562 
L 278.464889 171.326505 
L 281.964312 171.633218 
L 283.714023 171.938662 
L 285.463735 172.359416 
L 287.213446 172.90551 
L 288.963158 173.586034 
L 290.712869 174.408657 
L 292.462581 175.379188 
L 294.212292 176.501211 
L 295.962004 177.775785 
L 297.711716 179.201234 
L 301.211139 182.483838 
L 304.710562 186.279207 
L 308.209985 190.476672 
L 313.459119 197.210387 
L 320.457966 206.155655 
L 323.957389 210.268939 
L 327.456812 213.977856 
L 330.956235 217.197685 
L 334.455658 219.876476 
L 336.20537 221.004847 
L 337.955081 221.991251 
L 339.704793 222.836179 
L 341.454504 223.540947 
L 343.204216 224.10741 
L 344.953927 224.537695 
L 346.703639 224.833961 
L 348.45335 224.9982 
L 350.203062 225.032083 
L 351.952774 224.936866 
L 353.702485 224.713349 
L 355.452197 224.361899 
L 357.201908 223.882527 
L 358.95162 223.275019 
L 360.701331 222.539112 
L 362.451043 221.674706 
L 365.950466 219.562251 
L 369.449889 216.949343 
L 372.949312 213.865624 
L 376.448735 210.364617 
L 379.948158 206.526687 
L 385.197293 200.376668 
L 392.196139 192.142583 
L 395.695562 188.325646 
L 399.194985 184.876349 
L 402.694408 181.889818 
L 406.193832 179.427536 
L 407.943543 178.402169 
L 409.693255 177.514339 
L 411.442966 176.761686 
L 413.192678 176.139997 
L 414.942389 175.643484 
L 418.441812 174.996887 
L 421.941235 174.756787 
L 425.440659 174.855178 
L 427.19037 175.011978 
L 427.19037 175.011978 
" clip-path="url(#p03e86ca064)" style="fill: none; stroke: #8c8c8c; stroke-width: 2; stroke-linecap: square"/>
   </g>
   <g id="line2d_35">
    <path d="M 78.997772 195.197934 
L 82.497195 174.603168 
L 85.996618 155.493098 
L 87.74633 146.907356 
L 89.496041 139.148415 
L 91.245753 132.319314 
L 92.995464 126.494048 
L 94.745176 121.717763 
L 96.494888 118.006606 
L 98.244599 115.348887 
L 99.994311 113.707133 
L 101.744022 113.020369 
L 103.493734 113.208813 
L 105.243445 114.178825 
L 106.993157 115.825584 
L 108.742868 118.037695 
L 110.49258 120.702387 
L 112.242291 123.709735 
L 115.741715 130.350633 
L 122.740561 143.966138 
L 126.239984 150.187283 
L 129.739407 155.872139 
L 133.23883 161.111104 
L 141.987388 173.449421 
L 147.236522 181.070447 
L 159.484503 199.323246 
L 162.983926 204.082384 
L 166.483349 208.372859 
L 169.982773 212.09351 
L 171.732484 213.719135 
L 173.482196 215.181983 
L 175.231907 216.480644 
L 176.981619 217.616227 
L 178.73133 218.59127 
L 180.481042 219.410114 
L 182.230753 220.078057 
L 183.980465 220.600622 
L 185.730177 220.98563 
L 187.479888 221.242245 
L 190.979311 221.407172 
L 194.478734 221.156712 
L 197.978157 220.548597 
L 201.47758 219.618614 
L 204.977004 218.374941 
L 208.476427 216.81263 
L 211.97585 214.90656 
L 215.475273 212.637845 
L 218.974696 210.000781 
L 222.474119 207.00995 
L 225.973542 203.717074 
L 231.222677 198.38972 
L 239.971234 189.372023 
L 243.470658 186.049886 
L 246.970081 183.036869 
L 250.469504 180.397133 
L 253.968927 178.166482 
L 257.46835 176.363532 
L 260.967773 174.995151 
L 264.467196 174.056654 
L 267.966619 173.530873 
L 271.466042 173.394489 
L 274.965465 173.625538 
L 278.464889 174.204861 
L 281.964312 175.119503 
L 285.463735 176.360438 
L 288.963158 177.914286 
L 292.462581 179.770922 
L 295.962004 181.923598 
L 299.461427 184.366422 
L 302.96085 187.091575 
L 306.460273 190.084552 
L 309.959696 193.31275 
L 315.208831 198.473958 
L 323.957389 207.183685 
L 327.456812 210.361315 
L 330.956235 213.177955 
L 334.455658 215.529659 
L 336.20537 216.505814 
L 337.955081 217.34063 
L 339.704793 218.030456 
L 341.454504 218.573261 
L 343.204216 218.968897 
L 344.953927 219.219224 
L 346.703639 219.328703 
L 348.45335 219.302906 
L 350.203062 219.147779 
L 351.952774 218.869777 
L 355.452197 217.973209 
L 358.95162 216.673167 
L 362.451043 215.025153 
L 365.950466 213.07725 
L 369.449889 210.881073 
L 372.949312 208.479511 
L 378.198447 204.569998 
L 383.447581 200.3709 
L 390.446428 194.41855 
L 406.193832 180.72999 
L 409.693255 178.044991 
L 413.192678 175.674624 
L 416.692101 173.708972 
L 418.441812 172.904257 
L 420.191524 172.230576 
L 421.941235 171.695525 
L 423.690947 171.303226 
L 425.440659 171.055764 
L 427.19037 170.954349 
L 427.19037 170.954349 
" clip-path="url(#p03e86ca064)" style="fill: none; stroke-dasharray: 12.8,3.2,2,3.2; stroke-dashoffset: 0; stroke: #ed7e40; stroke-width: 2"/>
   </g>
   <g id="line2d_36">
    <path d="M 78.997772 195.197934 
L 82.497195 215.7927 
L 85.996618 234.902769 
L 87.74633 243.488511 
L 89.496041 251.247452 
L 91.245753 258.076554 
L 92.995464 263.901819 
L 94.745176 268.678105 
L 96.494888 272.389262 
L 98.244599 275.04698 
L 99.994311 276.688734 
L 101.744022 277.375498 
L 103.493734 277.187055 
L 105.243445 276.217042 
L 106.993157 274.570284 
L 108.742868 272.358173 
L 110.49258 269.69348 
L 112.242291 266.686133 
L 115.741715 260.045234 
L 122.740561 246.429729 
L 126.239984 240.208584 
L 129.739407 234.523728 
L 133.23883 229.284763 
L 141.987388 216.946446 
L 147.236522 209.32542 
L 159.484503 191.072622 
L 162.983926 186.313484 
L 166.483349 182.023008 
L 169.982773 178.302358 
L 171.732484 176.676732 
L 173.482196 175.213885 
L 175.231907 173.915223 
L 176.981619 172.77964 
L 178.73133 171.804597 
L 180.481042 170.985753 
L 182.230753 170.31781 
L 183.980465 169.795246 
L 185.730177 169.410237 
L 187.479888 169.153623 
L 190.979311 168.988696 
L 194.478734 169.239155 
L 197.978157 169.847271 
L 201.47758 170.777254 
L 204.977004 172.020926 
L 208.476427 173.583238 
L 211.97585 175.489308 
L 215.475273 177.758023 
L 218.974696 180.395087 
L 222.474119 183.385918 
L 225.973542 186.678793 
L 231.222677 192.006147 
L 239.971234 201.023845 
L 243.470658 204.345982 
L 246.970081 207.358998 
L 250.469504 209.998734 
L 253.968927 212.229385 
L 257.46835 214.032335 
L 260.967773 215.400716 
L 264.467196 216.339213 
L 267.966619 216.864995 
L 271.466042 217.001378 
L 274.965465 216.77033 
L 278.464889 216.191006 
L 281.964312 215.276365 
L 285.463735 214.03543 
L 288.963158 212.481582 
L 292.462581 210.624945 
L 295.962004 208.47227 
L 299.461427 206.029446 
L 302.96085 203.304292 
L 306.460273 200.311315 
L 309.959696 197.083117 
L 315.208831 191.921909 
L 323.957389 183.212182 
L 327.456812 180.034552 
L 330.956235 177.217912 
L 334.455658 174.866208 
L 336.20537 173.890053 
L 337.955081 173.055237 
L 339.704793 172.365411 
L 341.454504 171.822606 
L 343.204216 171.426971 
L 344.953927 171.176643 
L 346.703639 171.067164 
L 348.45335 171.092961 
L 350.203062 171.248089 
L 351.952774 171.526091 
L 355.452197 172.422658 
L 358.95162 173.7227 
L 362.451043 175.370715 
L 365.950466 177.318617 
L 369.449889 179.514795 
L 372.949312 181.916356 
L 378.198447 185.825869 
L 383.447581 190.024967 
L 390.446428 195.977318 
L 406.193832 209.665877 
L 409.693255 212.350876 
L 413.192678 214.721244 
L 416.692101 216.686895 
L 418.441812 217.49161 
L 420.191524 218.165291 
L 421.941235 218.700343 
L 423.690947 219.092641 
L 425.440659 219.340103 
L 427.19037 219.441519 
L 427.19037 219.441519 
" clip-path="url(#p03e86ca064)" style="fill: none; stroke-dasharray: 12.8,3.2,2,3.2; stroke-dashoffset: 0; stroke: #ed7e40; stroke-width: 2"/>
   </g>
   <g id="line2d_37">
    <path d="M 78.997772 195.197934 
L 82.497195 174.594494 
L 85.996618 155.420379 
L 87.74633 146.761545 
L 89.496041 138.890326 
L 91.245753 131.902865 
L 92.995464 125.868079 
L 94.745176 120.826316 
L 96.494888 116.790296 
L 98.244599 113.747878 
L 99.994311 111.663388 
L 101.744022 110.481734 
L 103.493734 110.132096 
L 105.243445 110.531203 
L 106.993157 111.588232 
L 108.742868 113.208971 
L 110.49258 115.299935 
L 112.242291 117.770679 
L 113.992003 120.537051 
L 117.491426 126.663196 
L 133.23883 155.690692 
L 143.737099 173.898235 
L 155.98508 194.871395 
L 161.234215 203.377252 
L 164.733638 208.662358 
L 168.233061 213.520816 
L 171.732484 217.850512 
L 173.482196 219.786297 
L 175.231907 221.553436 
L 176.981619 223.140888 
L 178.73133 224.538429 
L 180.481042 225.737337 
L 182.230753 226.730944 
L 183.980465 227.514236 
L 185.730177 228.084014 
L 187.479888 228.439053 
L 189.2296 228.580255 
L 190.979311 228.510639 
L 192.729023 228.23698 
L 194.478734 227.768878 
L 196.228446 227.11792 
L 197.978157 226.298111 
L 199.727869 225.326252 
L 203.227292 222.998758 
L 206.726715 220.281793 
L 211.97585 215.748242 
L 218.974696 209.295925 
L 227.723254 200.923287 
L 243.470658 185.65999 
L 246.970081 182.630306 
L 250.469504 179.932836 
L 253.968927 177.652871 
L 257.46835 175.849961 
L 259.218062 175.137349 
L 260.967773 174.552249 
L 262.717485 174.09408 
L 264.467196 173.760934 
L 266.216908 173.549683 
L 267.966619 173.456024 
L 271.466042 173.603769 
L 274.965465 174.165935 
L 278.464889 175.103413 
L 281.964312 176.382327 
L 285.463735 177.974513 
L 288.963158 179.849839 
L 292.462581 181.977104 
L 295.962004 184.318178 
L 301.211139 188.119221 
L 316.958543 199.862003 
L 322.207677 203.409232 
L 325.7071 205.582829 
L 329.206523 207.559647 
L 332.705947 209.289382 
L 336.20537 210.720236 
L 339.704793 211.800227 
L 343.204216 212.490613 
L 346.703639 212.775213 
L 350.203062 212.661195 
L 353.702485 212.175733 
L 357.201908 211.362874 
L 360.701331 210.275144 
L 364.200754 208.964649 
L 369.449889 206.669217 
L 374.699024 204.052712 
L 379.948158 201.175077 
L 386.947005 197.018641 
L 400.944697 188.475956 
L 404.44412 186.553817 
L 407.943543 184.825462 
L 411.442966 183.347224 
L 414.942389 182.164504 
L 418.441812 181.305653 
L 421.941235 180.778046 
L 425.440659 180.57267 
L 427.19037 180.58607 
L 427.19037 180.58607 
" clip-path="url(#p03e86ca064)" style="fill: none; stroke-dasharray: 7.4,3.2; stroke-dashoffset: 0; stroke: #60abcd; stroke-width: 2"/>
   </g>
   <g id="line2d_38">
    <path d="M 78.997772 195.197934 
L 82.497195 215.801374 
L 85.996618 234.975488 
L 87.74633 243.634323 
L 89.496041 251.505541 
L 91.245753 258.493002 
L 92.995464 264.527789 
L 94.745176 269.569551 
L 96.494888 273.605572 
L 98.244599 276.64799 
L 99.994311 278.732479 
L 101.744022 279.914134 
L 103.493734 280.263771 
L 105.243445 279.864664 
L 106.993157 278.807636 
L 108.742868 277.186896 
L 110.49258 275.095932 
L 112.242291 272.625189 
L 113.992003 269.858816 
L 117.491426 263.732672 
L 133.23883 234.705175 
L 143.737099 216.497632 
L 155.98508 195.524473 
L 161.234215 187.018616 
L 164.733638 181.733509 
L 168.233061 176.875051 
L 171.732484 172.545355 
L 173.482196 170.60957 
L 175.231907 168.842431 
L 176.981619 167.254979 
L 178.73133 165.857438 
L 180.481042 164.65853 
L 182.230753 163.664924 
L 183.980465 162.881631 
L 185.730177 162.311853 
L 187.479888 161.956814 
L 189.2296 161.815613 
L 190.979311 161.885228 
L 192.729023 162.158888 
L 194.478734 162.626989 
L 196.228446 163.277948 
L 197.978157 164.097756 
L 199.727869 165.069615 
L 203.227292 167.39711 
L 206.726715 170.114074 
L 211.97585 174.647626 
L 218.974696 181.099942 
L 227.723254 189.472581 
L 243.470658 204.735877 
L 246.970081 207.765561 
L 250.469504 210.463031 
L 253.968927 212.742996 
L 257.46835 214.545906 
L 259.218062 215.258518 
L 260.967773 215.843619 
L 262.717485 216.301787 
L 264.467196 216.634933 
L 266.216908 216.846184 
L 267.966619 216.939843 
L 271.466042 216.792098 
L 274.965465 216.229932 
L 278.464889 215.292454 
L 281.964312 214.013541 
L 285.463735 212.421354 
L 288.963158 210.546028 
L 292.462581 208.418764 
L 295.962004 206.077689 
L 301.211139 202.276647 
L 316.958543 190.533865 
L 322.207677 186.986635 
L 325.7071 184.813038 
L 329.206523 182.83622 
L 332.705947 181.106486 
L 336.20537 179.675631 
L 339.704793 178.595641 
L 343.204216 177.905254 
L 346.703639 177.620655 
L 350.203062 177.734672 
L 353.702485 178.220134 
L 357.201908 179.032993 
L 360.701331 180.120723 
L 364.200754 181.431218 
L 369.449889 183.72665 
L 374.699024 186.343155 
L 379.948158 189.220791 
L 386.947005 193.377226 
L 400.944697 201.919912 
L 404.44412 203.842051 
L 407.943543 205.570405 
L 411.442966 207.048643 
L 414.942389 208.231364 
L 418.441812 209.090214 
L 421.941235 209.617822 
L 425.440659 209.823197 
L 427.19037 209.809797 
L 427.19037 209.809797 
" clip-path="url(#p03e86ca064)" style="fill: none; stroke-dasharray: 7.4,3.2; stroke-dashoffset: 0; stroke: #60abcd; stroke-width: 2"/>
   </g>
   <g id="line2d_39">
    <path d="M 78.997772 195.197934 
L 82.497195 174.621088 
L 85.996618 155.619024 
L 87.74633 147.131718 
L 89.496041 139.495725 
L 91.245753 132.804809 
L 92.995464 127.120729 
L 94.745176 122.473752 
L 96.494888 118.863657 
L 98.244599 116.262509 
L 99.994311 114.618343 
L 101.744022 113.86117 
L 103.493734 113.908522 
L 105.243445 114.668465 
L 106.993157 116.043862 
L 108.742868 117.936965 
L 110.49258 120.252687 
L 112.242291 122.900689 
L 115.741715 128.869315 
L 127.989695 151.128131 
L 131.489119 156.97094 
L 136.738253 165.23191 
L 150.735946 186.646157 
L 166.483349 211.558299 
L 169.982773 216.45223 
L 173.482196 220.778972 
L 175.231907 222.683582 
L 176.981619 224.394323 
L 178.73133 225.897839 
L 180.481042 227.183758 
L 182.230753 228.244938 
L 183.980465 229.076604 
L 185.730177 229.677281 
L 187.479888 230.049648 
L 189.2296 230.200149 
L 190.979311 230.137668 
L 192.729023 229.872738 
L 194.478734 229.418313 
L 196.228446 228.788816 
L 197.978157 227.999703 
L 199.727869 227.066569 
L 203.227292 224.826342 
L 206.726715 222.17405 
L 210.226138 219.191123 
L 213.725561 215.943369 
L 218.974696 210.692233 
L 225.973542 203.270932 
L 232.972388 195.887487 
L 238.221523 190.730832 
L 241.720946 187.596032 
L 245.220369 184.756281 
L 248.719792 182.234989 
L 252.219215 180.04231 
L 255.718638 178.185877 
L 259.218062 176.675573 
L 262.717485 175.527163 
L 266.216908 174.762054 
L 269.716331 174.403083 
L 273.215754 174.469539 
L 276.715177 174.966669 
L 280.2146 175.885435 
L 283.714023 177.196282 
L 287.213446 178.855724 
L 290.712869 180.809955 
L 294.212292 183.001478 
L 299.461427 186.611682 
L 308.209985 193.047351 
L 315.208831 198.135496 
L 320.457966 201.696634 
L 323.957389 203.865217 
L 327.456812 205.804177 
L 330.956235 207.455734 
L 334.455658 208.768054 
L 337.955081 209.702608 
L 341.454504 210.24754 
L 344.953927 210.414473 
L 348.45335 210.233848 
L 351.952774 209.742276 
L 355.452197 208.980874 
L 358.95162 207.992071 
L 362.451043 206.811656 
L 367.700177 204.752736 
L 372.949312 202.436639 
L 379.948158 199.106089 
L 386.947005 195.566848 
L 393.945851 191.773967 
L 402.694408 186.919056 
L 406.193832 185.152845 
L 409.693255 183.607734 
L 413.192678 182.345178 
L 416.692101 181.401895 
L 420.191524 180.788352 
L 423.690947 180.49514 
L 427.19037 180.505629 
L 427.19037 180.505629 
" clip-path="url(#p03e86ca064)" style="fill: none; stroke-dasharray: 12.8,3.2,2,3.2; stroke-dashoffset: 0; stroke: #b93540; stroke-width: 2"/>
   </g>
   <g id="line2d_40">
    <path d="M 78.997772 195.197934 
L 82.497195 215.77478 
L 85.996618 234.776843 
L 87.74633 243.264149 
L 89.496041 250.900143 
L 91.245753 257.591059 
L 92.995464 263.275138 
L 94.745176 267.922116 
L 96.494888 271.532211 
L 98.244599 274.133359 
L 99.994311 275.777524 
L 101.744022 276.534697 
L 103.493734 276.487345 
L 105.243445 275.727402 
L 106.993157 274.352005 
L 108.742868 272.458903 
L 110.49258 270.14318 
L 112.242291 267.495178 
L 115.741715 261.526552 
L 127.989695 239.267736 
L 131.489119 233.424928 
L 136.738253 225.163957 
L 150.735946 203.749711 
L 166.483349 178.837568 
L 169.982773 173.943638 
L 173.482196 169.616895 
L 175.231907 167.712285 
L 176.981619 166.001544 
L 178.73133 164.498029 
L 180.481042 163.21211 
L 182.230753 162.15093 
L 183.980465 161.319263 
L 185.730177 160.718586 
L 187.479888 160.346219 
L 189.2296 160.195718 
L 190.979311 160.2582 
L 192.729023 160.523129 
L 194.478734 160.977554 
L 196.228446 161.607051 
L 197.978157 162.396165 
L 199.727869 163.329298 
L 203.227292 165.569525 
L 206.726715 168.221818 
L 210.226138 171.204744 
L 213.725561 174.452498 
L 218.974696 179.703634 
L 225.973542 187.124936 
L 232.972388 194.508381 
L 238.221523 199.665036 
L 241.720946 202.799836 
L 245.220369 205.639586 
L 248.719792 208.160879 
L 252.219215 210.353557 
L 255.718638 212.20999 
L 259.218062 213.720295 
L 262.717485 214.868705 
L 266.216908 215.633814 
L 269.716331 215.992784 
L 273.215754 215.926329 
L 276.715177 215.429199 
L 280.2146 214.510432 
L 283.714023 213.199585 
L 287.213446 211.540143 
L 290.712869 209.585912 
L 294.212292 207.39439 
L 299.461427 203.784185 
L 308.209985 197.348517 
L 315.208831 192.260372 
L 320.457966 188.699233 
L 323.957389 186.530651 
L 327.456812 184.59169 
L 330.956235 182.940134 
L 334.455658 181.627813 
L 337.955081 180.69326 
L 341.454504 180.148327 
L 344.953927 179.981394 
L 348.45335 180.16202 
L 351.952774 180.653592 
L 355.452197 181.414993 
L 358.95162 182.403797 
L 362.451043 183.584211 
L 367.700177 185.643131 
L 372.949312 187.959228 
L 379.948158 191.289778 
L 386.947005 194.829019 
L 393.945851 198.6219 
L 402.694408 203.476811 
L 406.193832 205.243022 
L 409.693255 206.788134 
L 413.192678 208.050689 
L 416.692101 208.993972 
L 420.191524 209.607516 
L 423.690947 209.900728 
L 427.19037 209.890238 
L 427.19037 209.890238 
" clip-path="url(#p03e86ca064)" style="fill: none; stroke-dasharray: 12.8,3.2,2,3.2; stroke-dashoffset: 0; stroke: #b93540; stroke-width: 2"/>
   </g>
   <g id="line2d_41">
    <path d="M 117.816961 291.757183 
L 117.816961 98.638685 
" clip-path="url(#p03e86ca064)" style="fill: none; stroke: #8f288c; stroke-opacity: 0.7; stroke-width: 2; stroke-linecap: square"/>
   </g>
   <g id="patch_3">
    <path d="M 61.588142 291.757183 
L 61.588142 98.638685 
" style="fill: none; stroke: #000000; stroke-width: 0.8; stroke-linejoin: miter; stroke-linecap: square"/>
   </g>
   <g id="patch_4">
    <path d="M 444.6 291.757183 
L 444.6 98.638685 
" style="fill: none; stroke: #000000; stroke-width: 0.8; stroke-linejoin: miter; stroke-linecap: square"/>
   </g>
   <g id="patch_5">
    <path d="M 61.588142 291.757183 
L 444.6 291.757183 
" style="fill: none; stroke: #000000; stroke-width: 0.8; stroke-linejoin: miter; stroke-linecap: square"/>
   </g>
   <g id="patch_6">
    <path d="M 61.588142 98.638685 
L 444.6 98.638685 
" style="fill: none; stroke: #000000; stroke-width: 0.8; stroke-linejoin: miter; stroke-linecap: square"/>
   </g>
   <g id="text_19">
    <!-- $t=\frac{\pi}{2\omega_L}$ -->
    <g transform="translate(122.521847 47.956484) scale(0.15 -0.15)">
     <defs>
      <path id="DejaVuSans-Oblique-74" d="M 2706 3500 
L 2619 3053 
L 1472 3053 
L 1100 1153 
Q 1081 1047 1072 975 
Q 1063 903 1063 863 
Q 1063 663 1183 572 
Q 1303 481 1569 481 
L 2150 481 
L 2053 0 
L 1503 0 
Q 991 0 739 200 
Q 488 400 488 806 
Q 488 878 497 964 
Q 506 1050 525 1153 
L 897 3053 
L 409 3053 
L 500 3500 
L 978 3500 
L 1172 4494 
L 1747 4494 
L 1556 3500 
L 2706 3500 
z
" transform="scale(0.015625)"/>
      <path id="DejaVuSans-3d" d="M 678 2906 
L 4684 2906 
L 4684 2381 
L 678 2381 
L 678 2906 
z
M 678 1631 
L 4684 1631 
L 4684 1100 
L 678 1100 
L 678 1631 
z
" transform="scale(0.015625)"/>
      <path id="DejaVuSans-Oblique-3c0" d="M 584 3500 
L 3938 3500 
L 3825 2925 
L 3384 2925 
L 2966 775 
Q 2922 550 2981 450 
Q 3038 353 3209 353 
Q 3256 353 3325 363 
Q 3397 369 3419 372 
L 3338 -44 
Q 3222 -84 3103 -103 
Q 2981 -122 2866 -122 
Q 2491 -122 2388 81 
Q 2284 288 2391 838 
L 2797 2925 
L 1506 2925 
L 938 0 
L 350 0 
L 919 2925 
L 472 2925 
L 584 3500 
z
" transform="scale(0.015625)"/>
      <path id="DejaVuSans-Oblique-3c9" d="M 1369 -91 
Q 72 -91 434 1766 
Q 575 2500 1256 3500 
L 1875 3500 
Q 1231 2500 1088 1750 
Q 819 397 1519 397 
Q 2166 397 2478 2078 
L 3009 2078 
Q 2669 388 3316 397 
Q 4013 403 4275 1750 
Q 4419 2500 4169 3500 
L 4788 3500 
Q 5075 2500 4934 1766 
Q 4578 -94 3278 -91 
Q 2428 -88 2503 844 
Q 2194 -91 1369 -91 
z
" transform="scale(0.015625)"/>
      <path id="DejaVuSans-Oblique-4c" d="M 1075 4666 
L 1709 4666 
L 909 525 
L 3181 525 
L 3078 0 
L 172 0 
L 1075 4666 
z
" transform="scale(0.015625)"/>
     </defs>
     <use xlink:href="#DejaVuSans-Oblique-74" transform="translate(0 0.5875)"/>
     <use xlink:href="#DejaVuSans-3d" transform="translate(58.691406 0.5875)"/>
     <use xlink:href="#DejaVuSans-Oblique-3c0" transform="translate(206.962891 45.71875) scale(0.7)"/>
     <use xlink:href="#DejaVuSans-32" transform="translate(161.962891 -38.81875) scale(0.7)"/>
     <use xlink:href="#DejaVuSans-Oblique-3c9" transform="translate(206.499023 -38.81875) scale(0.7)"/>
     <use xlink:href="#DejaVuSans-Oblique-4c" transform="translate(265.117188 -50.303125) scale(0.49)"/>
     <path d="M 161.962891 19.384375 
L 161.962891 25.634375 
L 294.330566 25.634375 
L 294.330566 19.384375 
L 161.962891 19.384375 
z
"/>
    </g>
   </g>
   <g id="legend_1">
    <g id="patch_7">
     <path d="M 347.927747 181.995953 
L 435.8535 181.995953 
Q 438.3525 181.995953 438.3525 179.496953 
L 438.3525 107.385185 
Q 438.3525 104.886185 435.8535 104.886185 
L 347.927747 104.886185 
Q 345.428747 104.886185 345.428747 107.385185 
L 345.428747 179.496953 
Q 345.428747 181.995953 347.927747 181.995953 
z
" style="fill: #ffffff; opacity: 0.8; stroke: #cccccc; stroke-linejoin: miter"/>
    </g>
    <g id="line2d_42">
     <path d="M 350.426747 115.005182 
L 362.921747 115.005182 
L 375.416747 115.005182 
" style="fill: none; stroke: #8c8c8c; stroke-width: 2; stroke-linecap: square"/>
    </g>
    <g id="text_20">
     <!-- no bath -->
     <g transform="translate(385.412747 119.378432) scale(0.12495 -0.12495)">
      <defs>
       <path id="DejaVuSans-62" d="M 3116 1747 
Q 3116 2381 2855 2742 
Q 2594 3103 2138 3103 
Q 1681 3103 1420 2742 
Q 1159 2381 1159 1747 
Q 1159 1113 1420 752 
Q 1681 391 2138 391 
Q 2594 391 2855 752 
Q 3116 1113 3116 1747 
z
M 1159 2969 
Q 1341 3281 1617 3432 
Q 1894 3584 2278 3584 
Q 2916 3584 3314 3078 
Q 3713 2572 3713 1747 
Q 3713 922 3314 415 
Q 2916 -91 2278 -91 
Q 1894 -91 1617 61 
Q 1341 213 1159 525 
L 1159 0 
L 581 0 
L 581 4863 
L 1159 4863 
L 1159 2969 
z
" transform="scale(0.015625)"/>
       <path id="DejaVuSans-68" d="M 3513 2113 
L 3513 0 
L 2938 0 
L 2938 2094 
Q 2938 2591 2744 2837 
Q 2550 3084 2163 3084 
Q 1697 3084 1428 2787 
Q 1159 2491 1159 1978 
L 1159 0 
L 581 0 
L 581 4863 
L 1159 4863 
L 1159 2956 
Q 1366 3272 1645 3428 
Q 1925 3584 2291 3584 
Q 2894 3584 3203 3211 
Q 3513 2838 3513 2113 
z
" transform="scale(0.015625)"/>
      </defs>
      <use xlink:href="#DejaVuSans-6e"/>
      <use xlink:href="#DejaVuSans-6f" transform="translate(63.378906 0)"/>
      <use xlink:href="#DejaVuSans-20" transform="translate(124.560547 0)"/>
      <use xlink:href="#DejaVuSans-62" transform="translate(156.347656 0)"/>
      <use xlink:href="#DejaVuSans-61" transform="translate(219.824219 0)"/>
      <use xlink:href="#DejaVuSans-74" transform="translate(281.103516 0)"/>
      <use xlink:href="#DejaVuSans-68" transform="translate(320.3125 0)"/>
     </g>
    </g>
    <g id="line2d_43">
     <path d="M 350.426747 133.345499 
L 362.921747 133.345499 
L 375.416747 133.345499 
" style="fill: none; stroke-dasharray: 12.8,3.2,2,3.2; stroke-dashoffset: 0; stroke: #ed7e40; stroke-width: 2"/>
    </g>
    <g id="text_21">
     <!-- gCCE0 -->
     <g transform="translate(385.412747 137.718749) scale(0.12495 -0.12495)">
      <defs>
       <path id="DejaVuSans-67" d="M 2906 1791 
Q 2906 2416 2648 2759 
Q 2391 3103 1925 3103 
Q 1463 3103 1205 2759 
Q 947 2416 947 1791 
Q 947 1169 1205 825 
Q 1463 481 1925 481 
Q 2391 481 2648 825 
Q 2906 1169 2906 1791 
z
M 3481 434 
Q 3481 -459 3084 -895 
Q 2688 -1331 1869 -1331 
Q 1566 -1331 1297 -1286 
Q 1028 -1241 775 -1147 
L 775 -588 
Q 1028 -725 1275 -790 
Q 1522 -856 1778 -856 
Q 2344 -856 2625 -561 
Q 2906 -266 2906 331 
L 2906 616 
Q 2728 306 2450 153 
Q 2172 0 1784 0 
Q 1141 0 747 490 
Q 353 981 353 1791 
Q 353 2603 747 3093 
Q 1141 3584 1784 3584 
Q 2172 3584 2450 3431 
Q 2728 3278 2906 2969 
L 2906 3500 
L 3481 3500 
L 3481 434 
z
" transform="scale(0.015625)"/>
       <path id="DejaVuSans-43" d="M 4122 4306 
L 4122 3641 
Q 3803 3938 3442 4084 
Q 3081 4231 2675 4231 
Q 1875 4231 1450 3742 
Q 1025 3253 1025 2328 
Q 1025 1406 1450 917 
Q 1875 428 2675 428 
Q 3081 428 3442 575 
Q 3803 722 4122 1019 
L 4122 359 
Q 3791 134 3420 21 
Q 3050 -91 2638 -91 
Q 1578 -91 968 557 
Q 359 1206 359 2328 
Q 359 3453 968 4101 
Q 1578 4750 2638 4750 
Q 3056 4750 3426 4639 
Q 3797 4528 4122 4306 
z
" transform="scale(0.015625)"/>
       <path id="DejaVuSans-45" d="M 628 4666 
L 3578 4666 
L 3578 4134 
L 1259 4134 
L 1259 2753 
L 3481 2753 
L 3481 2222 
L 1259 2222 
L 1259 531 
L 3634 531 
L 3634 0 
L 628 0 
L 628 4666 
z
" transform="scale(0.015625)"/>
      </defs>
      <use xlink:href="#DejaVuSans-67"/>
      <use xlink:href="#DejaVuSans-43" transform="translate(63.476562 0)"/>
      <use xlink:href="#DejaVuSans-43" transform="translate(133.300781 0)"/>
      <use xlink:href="#DejaVuSans-45" transform="translate(203.125 0)"/>
      <use xlink:href="#DejaVuSans-30" transform="translate(266.308594 0)"/>
     </g>
    </g>
    <g id="line2d_44">
     <path d="M 350.426747 151.685817 
L 362.921747 151.685817 
L 375.416747 151.685817 
" style="fill: none; stroke-dasharray: 7.4,3.2; stroke-dashoffset: 0; stroke: #60abcd; stroke-width: 2"/>
    </g>
    <g id="text_22">
     <!-- gCCE1 -->
     <g transform="translate(385.412747 156.059067) scale(0.12495 -0.12495)">
      <use xlink:href="#DejaVuSans-67"/>
      <use xlink:href="#DejaVuSans-43" transform="translate(63.476562 0)"/>
      <use xlink:href="#DejaVuSans-43" transform="translate(133.300781 0)"/>
      <use xlink:href="#DejaVuSans-45" transform="translate(203.125 0)"/>
      <use xlink:href="#DejaVuSans-31" transform="translate(266.308594 0)"/>
     </g>
    </g>
    <g id="line2d_45">
     <path d="M 350.426747 170.026134 
L 362.921747 170.026134 
L 375.416747 170.026134 
" style="fill: none; stroke-dasharray: 12.8,3.2,2,3.2; stroke-dashoffset: 0; stroke: #b93540; stroke-width: 2"/>
    </g>
    <g id="text_23">
     <!-- gCCE2 -->
     <g transform="translate(385.412747 174.399384) scale(0.12495 -0.12495)">
      <use xlink:href="#DejaVuSans-67"/>
      <use xlink:href="#DejaVuSans-43" transform="translate(63.476562 0)"/>
      <use xlink:href="#DejaVuSans-43" transform="translate(133.300781 0)"/>
      <use xlink:href="#DejaVuSans-45" transform="translate(203.125 0)"/>
      <use xlink:href="#DejaVuSans-32" transform="translate(266.308594 0)"/>
     </g>
    </g>
   </g>
  </g>
 </g>
 <defs>
  <clipPath id="p03e86ca064">
   <rect x="61.588142" y="98.638685" width="383.011858" height="193.118498"/>
  </clipPath>
 </defs>
</svg>
