<?xml version="1.0" encoding="utf-8" standalone="no"?>
<!DOCTYPE svg PUBLIC "-//W3C//DTD SVG 1.1//EN"
  "http://www.w3.org/Graphics/SVG/1.1/DTD/svg11.dtd">
<svg xmlns:xlink="http://www.w3.org/1999/xlink" width="360pt" height="288pt" viewBox="0 0 360 288" xmlns="http://www.w3.org/2000/svg" version="1.1">
 <metadata>
  <rdf:RDF xmlns:dc="http://purl.org/dc/elements/1.1/" xmlns:cc="http://creativecommons.org/ns#" xmlns:rdf="http://www.w3.org/1999/02/22-rdf-syntax-ns#">
   <cc:Work>
    <dc:type rdf:resource="http://purl.org/dc/dcmitype/StillImage"/>
    <dc:date>2025-02-28T10:55:32.817124</dc:date>
    <dc:format>image/svg+xml</dc:format>
    <dc:creator>
     <cc:Agent>
      <dc:title>Matplotlib v3.10.0, https://matplotlib.org/</dc:title>
     </cc:Agent>
    </dc:creator>
   </cc:Work>
  </rdf:RDF>
 </metadata>
 <defs>
  <style type="text/css">*{stroke-linejoin: round; stroke-linecap: butt}</style>
 </defs>
 <g id="figure_1">
  <g id="patch_1">
   <path d="M 0 288 
L 360 288 
L 360 0 
L 0 0 
z
" style="fill: #ffffff"/>
  </g>
  <g id="axes_1">
   <g id="patch_2">
    <path d="M 69.538086 234.189995 
L 340.149003 234.189995 
L 340.149003 16.2 
L 69.538086 16.2 
z
" style="fill: #ffffff"/>
   </g>
   <g id="patch_3">
    <path d="M 81.838582 234.189995 
L 90.038913 234.189995 
L 90.038913 234.130299 
L 81.838582 234.130299 
z
" clip-path="url(#pe883bd9d91)" style="fill: #b2b2b2; opacity: 0.6"/>
   </g>
   <g id="patch_4">
    <path d="M 90.038913 234.189995 
L 98.239244 234.189995 
L 98.239244 233.983546 
L 90.038913 233.983546 
z
" clip-path="url(#pe883bd9d91)" style="fill: #b2b2b2; opacity: 0.6"/>
   </g>
   <g id="patch_5">
    <path d="M 98.239244 234.189995 
L 106.439575 234.189995 
L 106.439575 233.486077 
L 98.239244 233.486077 
z
" clip-path="url(#pe883bd9d91)" style="fill: #b2b2b2; opacity: 0.6"/>
   </g>
   <g id="patch_6">
    <path d="M 106.439575 234.189995 
L 114.639905 234.189995 
L 114.639905 232.423982 
L 106.439575 232.423982 
z
" clip-path="url(#pe883bd9d91)" style="fill: #b2b2b2; opacity: 0.6"/>
   </g>
   <g id="patch_7">
    <path d="M 114.639905 234.189995 
L 122.840236 234.189995 
L 122.840236 229.49638 
L 114.639905 229.49638 
z
" clip-path="url(#pe883bd9d91)" style="fill: #b2b2b2; opacity: 0.6"/>
   </g>
   <g id="patch_8">
    <path d="M 122.840236 234.189995 
L 131.040567 234.189995 
L 131.040567 224.603776 
L 122.840236 224.603776 
z
" clip-path="url(#pe883bd9d91)" style="fill: #b2b2b2; opacity: 0.6"/>
   </g>
   <g id="patch_9">
    <path d="M 131.040567 234.189995 
L 139.240898 234.189995 
L 139.240898 216.226406 
L 131.040567 216.226406 
z
" clip-path="url(#pe883bd9d91)" style="fill: #b2b2b2; opacity: 0.6"/>
   </g>
   <g id="patch_10">
    <path d="M 139.240898 234.189995 
L 147.441229 234.189995 
L 147.441229 202.812167 
L 139.240898 202.812167 
z
" clip-path="url(#pe883bd9d91)" style="fill: #b2b2b2; opacity: 0.6"/>
   </g>
   <g id="patch_11">
    <path d="M 147.441229 234.189995 
L 155.64156 234.189995 
L 155.64156 182.428393 
L 147.441229 182.428393 
z
" clip-path="url(#pe883bd9d91)" style="fill: #b2b2b2; opacity: 0.6"/>
   </g>
   <g id="patch_12">
    <path d="M 155.64156 234.189995 
L 163.84189 234.189995 
L 163.84189 159.569714 
L 155.64156 159.569714 
z
" clip-path="url(#pe883bd9d91)" style="fill: #b2b2b2; opacity: 0.6"/>
   </g>
   <g id="patch_13">
    <path d="M 163.84189 234.189995 
L 172.042221 234.189995 
L 172.042221 127.903353 
L 163.84189 127.903353 
z
" clip-path="url(#pe883bd9d91)" style="fill: #b2b2b2; opacity: 0.6"/>
   </g>
   <g id="patch_14">
    <path d="M 172.042221 234.189995 
L 180.242552 234.189995 
L 180.242552 96.637455 
L 172.042221 96.637455 
z
" clip-path="url(#pe883bd9d91)" style="fill: #b2b2b2; opacity: 0.6"/>
   </g>
   <g id="patch_15">
    <path d="M 180.242552 234.189995 
L 188.442883 234.189995 
L 188.442883 68.368805 
L 180.242552 68.368805 
z
" clip-path="url(#pe883bd9d91)" style="fill: #b2b2b2; opacity: 0.6"/>
   </g>
   <g id="patch_16">
    <path d="M 188.442883 234.189995 
L 196.643214 234.189995 
L 196.643214 44.920625 
L 188.442883 44.920625 
z
" clip-path="url(#pe883bd9d91)" style="fill: #b2b2b2; opacity: 0.6"/>
   </g>
   <g id="patch_17">
    <path d="M 196.643214 234.189995 
L 204.843545 234.189995 
L 204.843545 30.92186 
L 196.643214 30.92186 
z
" clip-path="url(#pe883bd9d91)" style="fill: #b2b2b2; opacity: 0.6"/>
   </g>
   <g id="patch_18">
    <path d="M 204.843545 234.189995 
L 213.043875 234.189995 
L 213.043875 30.92186 
L 204.843545 30.92186 
z
" clip-path="url(#pe883bd9d91)" style="fill: #b2b2b2; opacity: 0.6"/>
   </g>
   <g id="patch_19">
    <path d="M 213.043875 234.189995 
L 221.244206 234.189995 
L 221.244206 44.920625 
L 213.043875 44.920625 
z
" clip-path="url(#pe883bd9d91)" style="fill: #b2b2b2; opacity: 0.6"/>
   </g>
   <g id="patch_20">
    <path d="M 221.244206 234.189995 
L 229.444537 234.189995 
L 229.444537 68.368805 
L 221.244206 68.368805 
z
" clip-path="url(#pe883bd9d91)" style="fill: #b2b2b2; opacity: 0.6"/>
   </g>
   <g id="patch_21">
    <path d="M 229.444537 234.189995 
L 237.644868 234.189995 
L 237.644868 96.637455 
L 229.444537 96.637455 
z
" clip-path="url(#pe883bd9d91)" style="fill: #b2b2b2; opacity: 0.6"/>
   </g>
   <g id="patch_22">
    <path d="M 237.644868 234.189995 
L 245.845199 234.189995 
L 245.845199 127.903353 
L 237.644868 127.903353 
z
" clip-path="url(#pe883bd9d91)" style="fill: #b2b2b2; opacity: 0.6"/>
   </g>
   <g id="patch_23">
    <path d="M 245.845199 234.189995 
L 254.04553 234.189995 
L 254.04553 159.569714 
L 245.845199 159.569714 
z
" clip-path="url(#pe883bd9d91)" style="fill: #b2b2b2; opacity: 0.6"/>
   </g>
   <g id="patch_24">
    <path d="M 254.04553 234.189995 
L 262.24586 234.189995 
L 262.24586 182.428393 
L 254.04553 182.428393 
z
" clip-path="url(#pe883bd9d91)" style="fill: #b2b2b2; opacity: 0.6"/>
   </g>
   <g id="patch_25">
    <path d="M 262.24586 234.189995 
L 270.446191 234.189995 
L 270.446191 202.812167 
L 262.24586 202.812167 
z
" clip-path="url(#pe883bd9d91)" style="fill: #b2b2b2; opacity: 0.6"/>
   </g>
   <g id="patch_26">
    <path d="M 270.446191 234.189995 
L 278.646522 234.189995 
L 278.646522 216.226406 
L 270.446191 216.226406 
z
" clip-path="url(#pe883bd9d91)" style="fill: #b2b2b2; opacity: 0.6"/>
   </g>
   <g id="patch_27">
    <path d="M 278.646522 234.189995 
L 286.846853 234.189995 
L 286.846853 224.603776 
L 278.646522 224.603776 
z
" clip-path="url(#pe883bd9d91)" style="fill: #b2b2b2; opacity: 0.6"/>
   </g>
   <g id="patch_28">
    <path d="M 286.846853 234.189995 
L 295.047184 234.189995 
L 295.047184 229.49638 
L 286.846853 229.49638 
z
" clip-path="url(#pe883bd9d91)" style="fill: #b2b2b2; opacity: 0.6"/>
   </g>
   <g id="patch_29">
    <path d="M 295.047184 234.189995 
L 303.247515 234.189995 
L 303.247515 232.423982 
L 295.047184 232.423982 
z
" clip-path="url(#pe883bd9d91)" style="fill: #b2b2b2; opacity: 0.6"/>
   </g>
   <g id="patch_30">
    <path d="M 303.247515 234.189995 
L 311.447845 234.189995 
L 311.447845 233.486077 
L 303.247515 233.486077 
z
" clip-path="url(#pe883bd9d91)" style="fill: #b2b2b2; opacity: 0.6"/>
   </g>
   <g id="patch_31">
    <path d="M 311.447845 234.189995 
L 319.648176 234.189995 
L 319.648176 233.983546 
L 311.447845 233.983546 
z
" clip-path="url(#pe883bd9d91)" style="fill: #b2b2b2; opacity: 0.6"/>
   </g>
   <g id="patch_32">
    <path d="M 319.648176 234.189995 
L 327.848507 234.189995 
L 327.848507 234.130299 
L 319.648176 234.130299 
z
" clip-path="url(#pe883bd9d91)" style="fill: #b2b2b2; opacity: 0.6"/>
   </g>
   <g id="matplotlib.axis_1">
    <g id="xtick_1">
     <g id="line2d_1">
      <path d="M 75.633602 234.189995 
L 75.633602 16.2 
" clip-path="url(#pe883bd9d91)" style="fill: none; stroke-dasharray: 2.96,1.28; stroke-dashoffset: 0; stroke: #b0b0b0; stroke-opacity: 0.7; stroke-width: 0.8"/>
     </g>
     <g id="line2d_2">
      <defs>
       <path id="maa7ea2b6b1" d="M 0 0 
L 0 3.5 
" style="stroke: #000000; stroke-width: 0.8"/>
      </defs>
      <g>
       <use xlink:href="#maa7ea2b6b1" x="75.633602" y="234.189995" style="stroke: #000000; stroke-width: 0.8"/>
      </g>
     </g>
     <g id="text_1">
      <!-- −1.0 -->
      <g transform="translate(60.462915 250.684243) scale(0.12495 -0.12495)">
       <defs>
        <path id="DejaVuSans-2212" d="M 678 2272 
L 4684 2272 
L 4684 1741 
L 678 1741 
L 678 2272 
z
" transform="scale(0.015625)"/>
        <path id="DejaVuSans-31" d="M 794 531 
L 1825 531 
L 1825 4091 
L 703 3866 
L 703 4441 
L 1819 4666 
L 2450 4666 
L 2450 531 
L 3481 531 
L 3481 0 
L 794 0 
L 794 531 
z
" transform="scale(0.015625)"/>
        <path id="DejaVuSans-2e" d="M 684 794 
L 1344 794 
L 1344 0 
L 684 0 
L 684 794 
z
" transform="scale(0.015625)"/>
        <path id="DejaVuSans-30" d="M 2034 4250 
Q 1547 4250 1301 3770 
Q 1056 3291 1056 2328 
Q 1056 1369 1301 889 
Q 1547 409 2034 409 
Q 2525 409 2770 889 
Q 3016 1369 3016 2328 
Q 3016 3291 2770 3770 
Q 2525 4250 2034 4250 
z
M 2034 4750 
Q 2819 4750 3233 4129 
Q 3647 3509 3647 2328 
Q 3647 1150 3233 529 
Q 2819 -91 2034 -91 
Q 1250 -91 836 529 
Q 422 1150 422 2328 
Q 422 3509 836 4129 
Q 1250 4750 2034 4750 
z
" transform="scale(0.015625)"/>
       </defs>
       <use xlink:href="#DejaVuSans-2212"/>
       <use xlink:href="#DejaVuSans-31" transform="translate(83.789062 0)"/>
       <use xlink:href="#DejaVuSans-2e" transform="translate(147.412109 0)"/>
       <use xlink:href="#DejaVuSans-30" transform="translate(179.199219 0)"/>
      </g>
     </g>
    </g>
    <g id="xtick_2">
     <g id="line2d_3">
      <path d="M 140.238573 234.189995 
L 140.238573 16.2 
" clip-path="url(#pe883bd9d91)" style="fill: none; stroke-dasharray: 2.96,1.28; stroke-dashoffset: 0; stroke: #b0b0b0; stroke-opacity: 0.7; stroke-width: 0.8"/>
     </g>
     <g id="line2d_4">
      <g>
       <use xlink:href="#maa7ea2b6b1" x="140.238573" y="234.189995" style="stroke: #000000; stroke-width: 0.8"/>
      </g>
     </g>
     <g id="text_2">
      <!-- −0.5 -->
      <g transform="translate(125.067886 250.684243) scale(0.12495 -0.12495)">
       <defs>
        <path id="DejaVuSans-35" d="M 691 4666 
L 3169 4666 
L 3169 4134 
L 1269 4134 
L 1269 2991 
Q 1406 3038 1543 3061 
Q 1681 3084 1819 3084 
Q 2600 3084 3056 2656 
Q 3513 2228 3513 1497 
Q 3513 744 3044 326 
Q 2575 -91 1722 -91 
Q 1428 -91 1123 -41 
Q 819 9 494 109 
L 494 744 
Q 775 591 1075 516 
Q 1375 441 1709 441 
Q 2250 441 2565 725 
Q 2881 1009 2881 1497 
Q 2881 1984 2565 2268 
Q 2250 2553 1709 2553 
Q 1456 2553 1204 2497 
Q 953 2441 691 2322 
L 691 4666 
z
" transform="scale(0.015625)"/>
       </defs>
       <use xlink:href="#DejaVuSans-2212"/>
       <use xlink:href="#DejaVuSans-30" transform="translate(83.789062 0)"/>
       <use xlink:href="#DejaVuSans-2e" transform="translate(147.412109 0)"/>
       <use xlink:href="#DejaVuSans-35" transform="translate(179.199219 0)"/>
      </g>
     </g>
    </g>
    <g id="xtick_3">
     <g id="line2d_5">
      <path d="M 204.843545 234.189995 
L 204.843545 16.2 
" clip-path="url(#pe883bd9d91)" style="fill: none; stroke-dasharray: 2.96,1.28; stroke-dashoffset: 0; stroke: #b0b0b0; stroke-opacity: 0.7; stroke-width: 0.8"/>
     </g>
     <g id="line2d_6">
      <g>
       <use xlink:href="#maa7ea2b6b1" x="204.843545" y="234.189995" style="stroke: #000000; stroke-width: 0.8"/>
      </g>
     </g>
     <g id="text_3">
      <!-- 0.0 -->
      <g transform="translate(194.908067 250.684243) scale(0.12495 -0.12495)">
       <use xlink:href="#DejaVuSans-30"/>
       <use xlink:href="#DejaVuSans-2e" transform="translate(63.623047 0)"/>
       <use xlink:href="#DejaVuSans-30" transform="translate(95.410156 0)"/>
      </g>
     </g>
    </g>
    <g id="xtick_4">
     <g id="line2d_7">
      <path d="M 269.448516 234.189995 
L 269.448516 16.2 
" clip-path="url(#pe883bd9d91)" style="fill: none; stroke-dasharray: 2.96,1.28; stroke-dashoffset: 0; stroke: #b0b0b0; stroke-opacity: 0.7; stroke-width: 0.8"/>
     </g>
     <g id="line2d_8">
      <g>
       <use xlink:href="#maa7ea2b6b1" x="269.448516" y="234.189995" style="stroke: #000000; stroke-width: 0.8"/>
      </g>
     </g>
     <g id="text_4">
      <!-- 0.5 -->
      <g transform="translate(259.513038 250.684243) scale(0.12495 -0.12495)">
       <use xlink:href="#DejaVuSans-30"/>
       <use xlink:href="#DejaVuSans-2e" transform="translate(63.623047 0)"/>
       <use xlink:href="#DejaVuSans-35" transform="translate(95.410156 0)"/>
      </g>
     </g>
    </g>
    <g id="xtick_5">
     <g id="line2d_9">
      <path d="M 334.053487 234.189995 
L 334.053487 16.2 
" clip-path="url(#pe883bd9d91)" style="fill: none; stroke-dasharray: 2.96,1.28; stroke-dashoffset: 0; stroke: #b0b0b0; stroke-opacity: 0.7; stroke-width: 0.8"/>
     </g>
     <g id="line2d_10">
      <g>
       <use xlink:href="#maa7ea2b6b1" x="334.053487" y="234.189995" style="stroke: #000000; stroke-width: 0.8"/>
      </g>
     </g>
     <g id="text_5">
      <!-- 1.0 -->
      <g transform="translate(324.11801 250.684243) scale(0.12495 -0.12495)">
       <use xlink:href="#DejaVuSans-31"/>
       <use xlink:href="#DejaVuSans-2e" transform="translate(63.623047 0)"/>
       <use xlink:href="#DejaVuSans-30" transform="translate(95.410156 0)"/>
      </g>
     </g>
    </g>
    <g id="text_6">
     <!-- $\omega$ [MHz] -->
     <g transform="translate(174.243545 268.680469) scale(0.15 -0.15)">
      <defs>
       <path id="DejaVuSans-Oblique-3c9" d="M 1369 -91 
Q 72 -91 434 1766 
Q 575 2500 1256 3500 
L 1875 3500 
Q 1231 2500 1088 1750 
Q 819 397 1519 397 
Q 2166 397 2478 2078 
L 3009 2078 
Q 2669 388 3316 397 
Q 4013 403 4275 1750 
Q 4419 2500 4169 3500 
L 4788 3500 
Q 5075 2500 4934 1766 
Q 4578 -94 3278 -91 
Q 2428 -88 2503 844 
Q 2194 -91 1369 -91 
z
" transform="scale(0.015625)"/>
       <path id="DejaVuSans-20" transform="scale(0.015625)"/>
       <path id="DejaVuSans-5b" d="M 550 4863 
L 1875 4863 
L 1875 4416 
L 1125 4416 
L 1125 -397 
L 1875 -397 
L 1875 -844 
L 550 -844 
L 550 4863 
z
" transform="scale(0.015625)"/>
       <path id="DejaVuSans-4d" d="M 628 4666 
L 1569 4666 
L 2759 1491 
L 3956 4666 
L 4897 4666 
L 4897 0 
L 4281 0 
L 4281 4097 
L 3078 897 
L 2444 897 
L 1241 4097 
L 1241 0 
L 628 0 
L 628 4666 
z
" transform="scale(0.015625)"/>
       <path id="DejaVuSans-48" d="M 628 4666 
L 1259 4666 
L 1259 2753 
L 3553 2753 
L 3553 4666 
L 4184 4666 
L 4184 0 
L 3553 0 
L 3553 2222 
L 1259 2222 
L 1259 0 
L 628 0 
L 628 4666 
z
" transform="scale(0.015625)"/>
       <path id="DejaVuSans-7a" d="M 353 3500 
L 3084 3500 
L 3084 2975 
L 922 459 
L 3084 459 
L 3084 0 
L 275 0 
L 275 525 
L 2438 3041 
L 353 3041 
L 353 3500 
z
" transform="scale(0.015625)"/>
       <path id="DejaVuSans-5d" d="M 1947 4863 
L 1947 -844 
L 622 -844 
L 622 -397 
L 1369 -397 
L 1369 4416 
L 622 4416 
L 622 4863 
L 1947 4863 
z
" transform="scale(0.015625)"/>
      </defs>
      <use xlink:href="#DejaVuSans-Oblique-3c9" transform="translate(0 0.015625)"/>
      <use xlink:href="#DejaVuSans-20" transform="translate(83.740234 0.015625)"/>
      <use xlink:href="#DejaVuSans-5b" transform="translate(115.527344 0.015625)"/>
      <use xlink:href="#DejaVuSans-4d" transform="translate(154.541016 0.015625)"/>
      <use xlink:href="#DejaVuSans-48" transform="translate(240.820312 0.015625)"/>
      <use xlink:href="#DejaVuSans-7a" transform="translate(316.015625 0.015625)"/>
      <use xlink:href="#DejaVuSans-5d" transform="translate(368.505859 0.015625)"/>
     </g>
    </g>
   </g>
   <g id="matplotlib.axis_2">
    <g id="ytick_1">
     <g id="line2d_11">
      <path d="M 69.538086 234.189995 
L 340.149003 234.189995 
" clip-path="url(#pe883bd9d91)" style="fill: none; stroke-dasharray: 2.96,1.28; stroke-dashoffset: 0; stroke: #b0b0b0; stroke-opacity: 0.7; stroke-width: 0.8"/>
     </g>
     <g id="line2d_12">
      <defs>
       <path id="m748d21b92f" d="M 0 0 
L -3.5 0 
" style="stroke: #000000; stroke-width: 0.8"/>
      </defs>
      <g>
       <use xlink:href="#m748d21b92f" x="69.538086" y="234.189995" style="stroke: #000000; stroke-width: 0.8"/>
      </g>
     </g>
     <g id="text_7">
      <!-- 0.00 -->
      <g transform="translate(34.717188 238.937119) scale(0.12495 -0.12495)">
       <use xlink:href="#DejaVuSans-30"/>
       <use xlink:href="#DejaVuSans-2e" transform="translate(63.623047 0)"/>
       <use xlink:href="#DejaVuSans-30" transform="translate(95.410156 0)"/>
       <use xlink:href="#DejaVuSans-30" transform="translate(159.033203 0)"/>
      </g>
     </g>
    </g>
    <g id="ytick_2">
     <g id="line2d_13">
      <path d="M 69.538086 202.61807 
L 340.149003 202.61807 
" clip-path="url(#pe883bd9d91)" style="fill: none; stroke-dasharray: 2.96,1.28; stroke-dashoffset: 0; stroke: #b0b0b0; stroke-opacity: 0.7; stroke-width: 0.8"/>
     </g>
     <g id="line2d_14">
      <g>
       <use xlink:href="#m748d21b92f" x="69.538086" y="202.61807" style="stroke: #000000; stroke-width: 0.8"/>
      </g>
     </g>
     <g id="text_8">
      <!-- 0.25 -->
      <g transform="translate(34.717188 207.365194) scale(0.12495 -0.12495)">
       <defs>
        <path id="DejaVuSans-32" d="M 1228 531 
L 3431 531 
L 3431 0 
L 469 0 
L 469 531 
Q 828 903 1448 1529 
Q 2069 2156 2228 2338 
Q 2531 2678 2651 2914 
Q 2772 3150 2772 3378 
Q 2772 3750 2511 3984 
Q 2250 4219 1831 4219 
Q 1534 4219 1204 4116 
Q 875 4013 500 3803 
L 500 4441 
Q 881 4594 1212 4672 
Q 1544 4750 1819 4750 
Q 2544 4750 2975 4387 
Q 3406 4025 3406 3419 
Q 3406 3131 3298 2873 
Q 3191 2616 2906 2266 
Q 2828 2175 2409 1742 
Q 1991 1309 1228 531 
z
" transform="scale(0.015625)"/>
       </defs>
       <use xlink:href="#DejaVuSans-30"/>
       <use xlink:href="#DejaVuSans-2e" transform="translate(63.623047 0)"/>
       <use xlink:href="#DejaVuSans-32" transform="translate(95.410156 0)"/>
       <use xlink:href="#DejaVuSans-35" transform="translate(159.033203 0)"/>
      </g>
     </g>
    </g>
    <g id="ytick_3">
     <g id="line2d_15">
      <path d="M 69.538086 171.046145 
L 340.149003 171.046145 
" clip-path="url(#pe883bd9d91)" style="fill: none; stroke-dasharray: 2.96,1.28; stroke-dashoffset: 0; stroke: #b0b0b0; stroke-opacity: 0.7; stroke-width: 0.8"/>
     </g>
     <g id="line2d_16">
      <g>
       <use xlink:href="#m748d21b92f" x="69.538086" y="171.046145" style="stroke: #000000; stroke-width: 0.8"/>
      </g>
     </g>
     <g id="text_9">
      <!-- 0.50 -->
      <g transform="translate(34.717188 175.793269) scale(0.12495 -0.12495)">
       <use xlink:href="#DejaVuSans-30"/>
       <use xlink:href="#DejaVuSans-2e" transform="translate(63.623047 0)"/>
       <use xlink:href="#DejaVuSans-35" transform="translate(95.410156 0)"/>
       <use xlink:href="#DejaVuSans-30" transform="translate(159.033203 0)"/>
      </g>
     </g>
    </g>
    <g id="ytick_4">
     <g id="line2d_17">
      <path d="M 69.538086 139.474219 
L 340.149003 139.474219 
" clip-path="url(#pe883bd9d91)" style="fill: none; stroke-dasharray: 2.96,1.28; stroke-dashoffset: 0; stroke: #b0b0b0; stroke-opacity: 0.7; stroke-width: 0.8"/>
     </g>
     <g id="line2d_18">
      <g>
       <use xlink:href="#m748d21b92f" x="69.538086" y="139.474219" style="stroke: #000000; stroke-width: 0.8"/>
      </g>
     </g>
     <g id="text_10">
      <!-- 0.75 -->
      <g transform="translate(34.717188 144.221343) scale(0.12495 -0.12495)">
       <defs>
        <path id="DejaVuSans-37" d="M 525 4666 
L 3525 4666 
L 3525 4397 
L 1831 0 
L 1172 0 
L 2766 4134 
L 525 4134 
L 525 4666 
z
" transform="scale(0.015625)"/>
       </defs>
       <use xlink:href="#DejaVuSans-30"/>
       <use xlink:href="#DejaVuSans-2e" transform="translate(63.623047 0)"/>
       <use xlink:href="#DejaVuSans-37" transform="translate(95.410156 0)"/>
       <use xlink:href="#DejaVuSans-35" transform="translate(159.033203 0)"/>
      </g>
     </g>
    </g>
    <g id="ytick_5">
     <g id="line2d_19">
      <path d="M 69.538086 107.902294 
L 340.149003 107.902294 
" clip-path="url(#pe883bd9d91)" style="fill: none; stroke-dasharray: 2.96,1.28; stroke-dashoffset: 0; stroke: #b0b0b0; stroke-opacity: 0.7; stroke-width: 0.8"/>
     </g>
     <g id="line2d_20">
      <g>
       <use xlink:href="#m748d21b92f" x="69.538086" y="107.902294" style="stroke: #000000; stroke-width: 0.8"/>
      </g>
     </g>
     <g id="text_11">
      <!-- 1.00 -->
      <g transform="translate(34.717188 112.649418) scale(0.12495 -0.12495)">
       <use xlink:href="#DejaVuSans-31"/>
       <use xlink:href="#DejaVuSans-2e" transform="translate(63.623047 0)"/>
       <use xlink:href="#DejaVuSans-30" transform="translate(95.410156 0)"/>
       <use xlink:href="#DejaVuSans-30" transform="translate(159.033203 0)"/>
      </g>
     </g>
    </g>
    <g id="ytick_6">
     <g id="line2d_21">
      <path d="M 69.538086 76.330369 
L 340.149003 76.330369 
" clip-path="url(#pe883bd9d91)" style="fill: none; stroke-dasharray: 2.96,1.28; stroke-dashoffset: 0; stroke: #b0b0b0; stroke-opacity: 0.7; stroke-width: 0.8"/>
     </g>
     <g id="line2d_22">
      <g>
       <use xlink:href="#m748d21b92f" x="69.538086" y="76.330369" style="stroke: #000000; stroke-width: 0.8"/>
      </g>
     </g>
     <g id="text_12">
      <!-- 1.25 -->
      <g transform="translate(34.717188 81.077493) scale(0.12495 -0.12495)">
       <use xlink:href="#DejaVuSans-31"/>
       <use xlink:href="#DejaVuSans-2e" transform="translate(63.623047 0)"/>
       <use xlink:href="#DejaVuSans-32" transform="translate(95.410156 0)"/>
       <use xlink:href="#DejaVuSans-35" transform="translate(159.033203 0)"/>
      </g>
     </g>
    </g>
    <g id="ytick_7">
     <g id="line2d_23">
      <path d="M 69.538086 44.758443 
L 340.149003 44.758443 
" clip-path="url(#pe883bd9d91)" style="fill: none; stroke-dasharray: 2.96,1.28; stroke-dashoffset: 0; stroke: #b0b0b0; stroke-opacity: 0.7; stroke-width: 0.8"/>
     </g>
     <g id="line2d_24">
      <g>
       <use xlink:href="#m748d21b92f" x="69.538086" y="44.758443" style="stroke: #000000; stroke-width: 0.8"/>
      </g>
     </g>
     <g id="text_13">
      <!-- 1.50 -->
      <g transform="translate(34.717188 49.505567) scale(0.12495 -0.12495)">
       <use xlink:href="#DejaVuSans-31"/>
       <use xlink:href="#DejaVuSans-2e" transform="translate(63.623047 0)"/>
       <use xlink:href="#DejaVuSans-35" transform="translate(95.410156 0)"/>
       <use xlink:href="#DejaVuSans-30" transform="translate(159.033203 0)"/>
      </g>
     </g>
    </g>
    <g id="text_14">
     <!-- Density -->
     <g transform="translate(27.597656 153.707888) rotate(-90) scale(0.15 -0.15)">
      <defs>
       <path id="DejaVuSans-44" d="M 1259 4147 
L 1259 519 
L 2022 519 
Q 2988 519 3436 956 
Q 3884 1394 3884 2338 
Q 3884 3275 3436 3711 
Q 2988 4147 2022 4147 
L 1259 4147 
z
M 628 4666 
L 1925 4666 
Q 3281 4666 3915 4102 
Q 4550 3538 4550 2338 
Q 4550 1131 3912 565 
Q 3275 0 1925 0 
L 628 0 
L 628 4666 
z
" transform="scale(0.015625)"/>
       <path id="DejaVuSans-65" d="M 3597 1894 
L 3597 1613 
L 953 1613 
Q 991 1019 1311 708 
Q 1631 397 2203 397 
Q 2534 397 2845 478 
Q 3156 559 3463 722 
L 3463 178 
Q 3153 47 2828 -22 
Q 2503 -91 2169 -91 
Q 1331 -91 842 396 
Q 353 884 353 1716 
Q 353 2575 817 3079 
Q 1281 3584 2069 3584 
Q 2775 3584 3186 3129 
Q 3597 2675 3597 1894 
z
M 3022 2063 
Q 3016 2534 2758 2815 
Q 2500 3097 2075 3097 
Q 1594 3097 1305 2825 
Q 1016 2553 972 2059 
L 3022 2063 
z
" transform="scale(0.015625)"/>
       <path id="DejaVuSans-6e" d="M 3513 2113 
L 3513 0 
L 2938 0 
L 2938 2094 
Q 2938 2591 2744 2837 
Q 2550 3084 2163 3084 
Q 1697 3084 1428 2787 
Q 1159 2491 1159 1978 
L 1159 0 
L 581 0 
L 581 3500 
L 1159 3500 
L 1159 2956 
Q 1366 3272 1645 3428 
Q 1925 3584 2291 3584 
Q 2894 3584 3203 3211 
Q 3513 2838 3513 2113 
z
" transform="scale(0.015625)"/>
       <path id="DejaVuSans-73" d="M 2834 3397 
L 2834 2853 
Q 2591 2978 2328 3040 
Q 2066 3103 1784 3103 
Q 1356 3103 1142 2972 
Q 928 2841 928 2578 
Q 928 2378 1081 2264 
Q 1234 2150 1697 2047 
L 1894 2003 
Q 2506 1872 2764 1633 
Q 3022 1394 3022 966 
Q 3022 478 2636 193 
Q 2250 -91 1575 -91 
Q 1294 -91 989 -36 
Q 684 19 347 128 
L 347 722 
Q 666 556 975 473 
Q 1284 391 1588 391 
Q 1994 391 2212 530 
Q 2431 669 2431 922 
Q 2431 1156 2273 1281 
Q 2116 1406 1581 1522 
L 1381 1569 
Q 847 1681 609 1914 
Q 372 2147 372 2553 
Q 372 3047 722 3315 
Q 1072 3584 1716 3584 
Q 2034 3584 2315 3537 
Q 2597 3491 2834 3397 
z
" transform="scale(0.015625)"/>
       <path id="DejaVuSans-69" d="M 603 3500 
L 1178 3500 
L 1178 0 
L 603 0 
L 603 3500 
z
M 603 4863 
L 1178 4863 
L 1178 4134 
L 603 4134 
L 603 4863 
z
" transform="scale(0.015625)"/>
       <path id="DejaVuSans-74" d="M 1172 4494 
L 1172 3500 
L 2356 3500 
L 2356 3053 
L 1172 3053 
L 1172 1153 
Q 1172 725 1289 603 
Q 1406 481 1766 481 
L 2356 481 
L 2356 0 
L 1766 0 
Q 1100 0 847 248 
Q 594 497 594 1153 
L 594 3053 
L 172 3053 
L 172 3500 
L 594 3500 
L 594 4494 
L 1172 4494 
z
" transform="scale(0.015625)"/>
       <path id="DejaVuSans-79" d="M 2059 -325 
Q 1816 -950 1584 -1140 
Q 1353 -1331 966 -1331 
L 506 -1331 
L 506 -850 
L 844 -850 
Q 1081 -850 1212 -737 
Q 1344 -625 1503 -206 
L 1606 56 
L 191 3500 
L 800 3500 
L 1894 763 
L 2988 3500 
L 3597 3500 
L 2059 -325 
z
" transform="scale(0.015625)"/>
      </defs>
      <use xlink:href="#DejaVuSans-44"/>
      <use xlink:href="#DejaVuSans-65" transform="translate(77.001953 0)"/>
      <use xlink:href="#DejaVuSans-6e" transform="translate(138.525391 0)"/>
      <use xlink:href="#DejaVuSans-73" transform="translate(201.904297 0)"/>
      <use xlink:href="#DejaVuSans-69" transform="translate(254.003906 0)"/>
      <use xlink:href="#DejaVuSans-74" transform="translate(281.787109 0)"/>
      <use xlink:href="#DejaVuSans-79" transform="translate(320.996094 0)"/>
     </g>
    </g>
   </g>
   <g id="line2d_25">
    <path d="M 81.838582 234.095468 
L 92.181342 233.863485 
L 98.830259 233.506051 
L 104.001638 233.011622 
L 108.187994 232.395714 
L 111.881836 231.627955 
L 115.083167 230.740304 
L 118.038241 229.692007 
L 120.747059 228.497998 
L 123.209621 227.185074 
L 125.672182 225.622317 
L 128.134744 223.775354 
L 130.35105 221.840276 
L 132.567355 219.618636 
L 134.783661 217.083016 
L 136.999967 214.206253 
L 139.216272 210.962063 
L 141.432578 207.325757 
L 143.648884 203.27503 
L 145.865189 198.790813 
L 148.327751 193.281926 
L 150.790313 187.206425 
L 153.252875 180.560421 
L 155.961693 172.599371 
L 158.916767 163.168011 
L 162.118097 152.140745 
L 165.565684 139.453929 
L 169.998295 122.225171 
L 182.064848 74.729889 
L 185.266178 63.345879 
L 187.974996 54.549301 
L 190.191302 48.052401 
L 192.161351 42.884446 
L 194.131401 38.347621 
L 195.855194 34.935993 
L 197.332731 32.450346 
L 198.810268 30.386732 
L 200.041549 28.999276 
L 201.27283 27.920685 
L 202.504111 27.155914 
L 203.489136 26.772466 
L 204.47416 26.593281 
L 205.459185 26.618888 
L 206.44421 26.849213 
L 207.429235 27.283572 
L 208.660515 28.111435 
L 209.891796 29.252241 
L 211.123077 30.700753 
L 212.600614 32.835717 
L 214.078151 35.390201 
L 215.801945 38.878397 
L 217.525738 42.884446 
L 219.495787 48.052401 
L 221.712093 54.549301 
L 224.174655 62.511378 
L 226.883473 72.022083 
L 230.331059 84.987683 
L 235.256183 104.481376 
L 243.382637 136.643328 
L 247.322736 151.260545 
L 250.524066 162.348526 
L 253.47914 171.842581 
L 256.187958 179.864605 
L 258.896776 187.206425 
L 261.359338 193.281926 
L 263.8219 198.790813 
L 266.284462 203.746202 
L 268.747024 208.168898 
L 270.963329 211.716043 
L 273.179635 214.876381 
L 275.39594 217.675022 
L 277.612246 220.138502 
L 279.828552 222.294095 
L 282.044857 224.169196 
L 284.507419 225.956477 
L 286.969981 227.466582 
L 289.678799 228.848034 
L 292.387617 229.9772 
L 295.342691 230.966196 
L 298.544022 231.801474 
L 302.237864 232.521872 
L 306.424219 233.097916 
L 311.349343 233.541505 
L 317.505747 233.863485 
L 326.124714 234.072894 
L 327.848507 234.095468 
L 327.848507 234.095468 
" clip-path="url(#pe883bd9d91)" style="fill: none; stroke: #4c72b0; stroke-width: 3; stroke-linecap: square"/>
   </g>
   <g id="line2d_26">
    <path d="M 236.199241 234.189995 
L 236.199241 16.2 
" clip-path="url(#pe883bd9d91)" style="fill: none; stroke-dasharray: 11.1,4.8; stroke-dashoffset: 0; stroke: #c44e52; stroke-width: 3"/>
   </g>
   <g id="line2d_27">
    <path d="M 173.487849 234.189995 
L 173.487849 16.2 
" clip-path="url(#pe883bd9d91)" style="fill: none; stroke-dasharray: 11.1,4.8; stroke-dashoffset: 0; stroke: #c44e52; stroke-width: 3"/>
   </g>
   <g id="patch_33">
    <path d="M 69.538086 234.189995 
L 69.538086 16.2 
" style="fill: none; stroke: #000000; stroke-width: 0.8; stroke-linejoin: miter; stroke-linecap: square"/>
   </g>
   <g id="patch_34">
    <path d="M 340.149003 234.189995 
L 340.149003 16.2 
" style="fill: none; stroke: #000000; stroke-width: 0.8; stroke-linejoin: miter; stroke-linecap: square"/>
   </g>
   <g id="patch_35">
    <path d="M 69.538086 234.189995 
L 340.149003 234.189995 
" style="fill: none; stroke: #000000; stroke-width: 0.8; stroke-linejoin: miter; stroke-linecap: square"/>
   </g>
   <g id="patch_36">
    <path d="M 69.538086 16.2 
L 340.149003 16.2 
" style="fill: none; stroke: #000000; stroke-width: 0.8; stroke-linejoin: miter; stroke-linecap: square"/>
   </g>
   <g id="text_15">
    <!-- $\sigma$=0.24 -->
    <g transform="translate(204.843545 107.902294) scale(0.15 -0.15)">
     <defs>
      <path id="DejaVuSans-Oblique-3c3" d="M 2219 3044 
Q 1744 3044 1422 2700 
Q 1081 2341 969 1747 
Q 844 1119 1044 756 
Q 1241 397 1706 397 
Q 2166 397 2503 759 
Q 2844 1122 2966 1747 
Q 3075 2319 2881 2700 
Q 2700 3044 2219 3044 
z
M 2309 3503 
L 4219 3500 
L 4106 2925 
L 3463 2925 
Q 3706 2438 3575 1747 
Q 3406 888 2884 400 
Q 2359 -91 1609 -91 
Q 856 -91 525 400 
Q 194 888 363 1747 
Q 528 2609 1050 3097 
Q 1484 3503 2309 3503 
z
" transform="scale(0.015625)"/>
      <path id="DejaVuSans-3d" d="M 678 2906 
L 4684 2906 
L 4684 2381 
L 678 2381 
L 678 2906 
z
M 678 1631 
L 4684 1631 
L 4684 1100 
L 678 1100 
L 678 1631 
z
" transform="scale(0.015625)"/>
      <path id="DejaVuSans-34" d="M 2419 4116 
L 825 1625 
L 2419 1625 
L 2419 4116 
z
M 2253 4666 
L 3047 4666 
L 3047 1625 
L 3713 1625 
L 3713 1100 
L 3047 1100 
L 3047 0 
L 2419 0 
L 2419 1100 
L 313 1100 
L 313 1709 
L 2253 4666 
z
" transform="scale(0.015625)"/>
     </defs>
     <use xlink:href="#DejaVuSans-Oblique-3c3" transform="translate(0 0.78125)"/>
     <use xlink:href="#DejaVuSans-3d" transform="translate(63.378906 0.78125)"/>
     <use xlink:href="#DejaVuSans-30" transform="translate(147.167969 0.78125)"/>
     <use xlink:href="#DejaVuSans-2e" transform="translate(210.791016 0.78125)"/>
     <use xlink:href="#DejaVuSans-32" transform="translate(237.078125 0.78125)"/>
     <use xlink:href="#DejaVuSans-34" transform="translate(300.701172 0.78125)"/>
    </g>
   </g>
   <g id="text_16">
    <!-- $T_2^*$=5.83$\mu$s -->
    <g transform="translate(204.843545 133.159834) scale(0.15 -0.15)">
     <defs>
      <path id="DejaVuSans-Oblique-54" d="M 378 4666 
L 4325 4666 
L 4225 4134 
L 2559 4134 
L 1759 0 
L 1125 0 
L 1925 4134 
L 275 4134 
L 378 4666 
z
" transform="scale(0.015625)"/>
      <path id="DejaVuSans-2a" d="M 3009 3897 
L 1888 3291 
L 3009 2681 
L 2828 2375 
L 1778 3009 
L 1778 1831 
L 1422 1831 
L 1422 3009 
L 372 2375 
L 191 2681 
L 1313 3291 
L 191 3897 
L 372 4206 
L 1422 3572 
L 1422 4750 
L 1778 4750 
L 1778 3572 
L 2828 4206 
L 3009 3897 
z
" transform="scale(0.015625)"/>
      <path id="DejaVuSans-38" d="M 2034 2216 
Q 1584 2216 1326 1975 
Q 1069 1734 1069 1313 
Q 1069 891 1326 650 
Q 1584 409 2034 409 
Q 2484 409 2743 651 
Q 3003 894 3003 1313 
Q 3003 1734 2745 1975 
Q 2488 2216 2034 2216 
z
M 1403 2484 
Q 997 2584 770 2862 
Q 544 3141 544 3541 
Q 544 4100 942 4425 
Q 1341 4750 2034 4750 
Q 2731 4750 3128 4425 
Q 3525 4100 3525 3541 
Q 3525 3141 3298 2862 
Q 3072 2584 2669 2484 
Q 3125 2378 3379 2068 
Q 3634 1759 3634 1313 
Q 3634 634 3220 271 
Q 2806 -91 2034 -91 
Q 1263 -91 848 271 
Q 434 634 434 1313 
Q 434 1759 690 2068 
Q 947 2378 1403 2484 
z
M 1172 3481 
Q 1172 3119 1398 2916 
Q 1625 2713 2034 2713 
Q 2441 2713 2670 2916 
Q 2900 3119 2900 3481 
Q 2900 3844 2670 4047 
Q 2441 4250 2034 4250 
Q 1625 4250 1398 4047 
Q 1172 3844 1172 3481 
z
" transform="scale(0.015625)"/>
      <path id="DejaVuSans-33" d="M 2597 2516 
Q 3050 2419 3304 2112 
Q 3559 1806 3559 1356 
Q 3559 666 3084 287 
Q 2609 -91 1734 -91 
Q 1441 -91 1130 -33 
Q 819 25 488 141 
L 488 750 
Q 750 597 1062 519 
Q 1375 441 1716 441 
Q 2309 441 2620 675 
Q 2931 909 2931 1356 
Q 2931 1769 2642 2001 
Q 2353 2234 1838 2234 
L 1294 2234 
L 1294 2753 
L 1863 2753 
Q 2328 2753 2575 2939 
Q 2822 3125 2822 3475 
Q 2822 3834 2567 4026 
Q 2313 4219 1838 4219 
Q 1578 4219 1281 4162 
Q 984 4106 628 3988 
L 628 4550 
Q 988 4650 1302 4700 
Q 1616 4750 1894 4750 
Q 2613 4750 3031 4423 
Q 3450 4097 3450 3541 
Q 3450 3153 3228 2886 
Q 3006 2619 2597 2516 
z
" transform="scale(0.015625)"/>
      <path id="DejaVuSans-Oblique-3bc" d="M -84 -1331 
L 856 3500 
L 1434 3500 
L 1009 1322 
Q 997 1256 987 1175 
Q 978 1094 978 1013 
Q 978 722 1161 565 
Q 1344 409 1684 409 
Q 2147 409 2431 671 
Q 2716 934 2816 1459 
L 3213 3500 
L 3788 3500 
L 3266 809 
Q 3253 750 3248 706 
Q 3244 663 3244 628 
Q 3244 531 3283 486 
Q 3322 441 3406 441 
Q 3438 441 3492 456 
Q 3547 472 3647 513 
L 3559 50 
Q 3422 -19 3297 -55 
Q 3172 -91 3053 -91 
Q 2847 -91 2730 40 
Q 2613 172 2613 403 
Q 2438 153 2195 31 
Q 1953 -91 1625 -91 
Q 1334 -91 1117 43 
Q 900 178 831 397 
L 494 -1331 
L -84 -1331 
z
" transform="scale(0.015625)"/>
     </defs>
     <use xlink:href="#DejaVuSans-Oblique-54" transform="translate(0 0.765625)"/>
     <use xlink:href="#DejaVuSans-2a" transform="translate(81.738451 39.046875) scale(0.7)"/>
     <use xlink:href="#DejaVuSans-32" transform="translate(61.083984 -26.578125) scale(0.7)"/>
     <use xlink:href="#DejaVuSans-3d" transform="translate(133.110521 0.765625)"/>
     <use xlink:href="#DejaVuSans-35" transform="translate(216.899583 0.765625)"/>
     <use xlink:href="#DejaVuSans-2e" transform="translate(280.52263 0.765625)"/>
     <use xlink:href="#DejaVuSans-38" transform="translate(309.68474 0.765625)"/>
     <use xlink:href="#DejaVuSans-33" transform="translate(373.307786 0.765625)"/>
     <use xlink:href="#DejaVuSans-Oblique-3bc" transform="translate(436.930833 0.765625)"/>
     <use xlink:href="#DejaVuSans-73" transform="translate(500.55388 0.765625)"/>
    </g>
   </g>
  </g>
 </g>
 <defs>
  <clipPath id="pe883bd9d91">
   <rect x="69.538086" y="16.2" width="270.610917" height="217.989995"/>
  </clipPath>
 </defs>
</svg>
